<?xml version="1.0" encoding="utf-8"?>
<!-- Generator: Adobe Illustrator 15.0.0, SVG Export Plug-In  -->
<!DOCTYPE svg PUBLIC "-//W3C//DTD SVG 1.1//EN" "http://www.w3.org/Graphics/SVG/1.1/DTD/svg11.dtd" [
	<!ENTITY ns_flows "http://ns.adobe.com/Flows/1.0/">
]>
<svg version="1.1"
	 xmlns="http://www.w3.org/2000/svg" xmlns:xlink="http://www.w3.org/1999/xlink" xmlns:a="http://ns.adobe.com/AdobeSVGViewerExtensions/3.0/"
	 x="0px" y="0px" width="1280px" height="800px" viewBox="-0.944 9.37 1280 800" enable-background="new -0.944 9.37 1280 800"
	 xml:space="preserve">
<defs>
</defs>
<path fill-rule="evenodd" clip-rule="evenodd" fill="none" stroke="#FFFFFF" stroke-width="1.9064" stroke-linecap="round" d="
	M128.826,615.22c4.907,0,9.816,0,14.728,0c0,4.911,0,9.819,0,14.728c-4.911,0-9.82,0-14.728,0
	C128.826,625.04,128.826,620.131,128.826,615.22z"/>
<path fill-rule="evenodd" clip-rule="evenodd" fill="none" stroke="#FFFFFF" stroke-width="1.9064" stroke-linecap="round" d="
	M173.011,659.411c0-4.91,0-9.822,0-14.731c4.914,0,9.821,0,14.731,0c0,4.909,0,9.821,0,14.731
	C182.832,659.411,177.924,659.411,173.011,659.411z"/>
<path fill-rule="evenodd" clip-rule="evenodd" fill="none" stroke="#FFFFFF" stroke-width="3.6504" stroke-linecap="round" d="
	M891.095,685.187c2.791-6.259,1.129-10.177,0-14.731"/>
<path fill-rule="evenodd" clip-rule="evenodd" fill="none" stroke="#FFFFFF" stroke-width="3.0051" stroke-linecap="round" d="
	M891.095,685.187c-9.801,13.079-15.196,51.28,8.311,51.684C914.267,724.128,897.31,699.507,891.095,685.187"/>
<path fill-rule="evenodd" clip-rule="evenodd" fill="none" stroke="#FFFFFF" stroke-width="1.9064" stroke-linecap="round" d="
	M938.966,681.503c-7.835,32.503,14.568,56.92,0,73.646c-32.908,7.994-26.216-61.668-14.731-73.646"/>
<line fill-rule="evenodd" clip-rule="evenodd" fill="none" stroke="#FFFFFF" stroke-width="1.9064" stroke-linecap="round" x1="924.235" y1="681.503" x2="931.602" y2="685.187"/>
<path fill-rule="evenodd" clip-rule="evenodd" fill="none" stroke="#FFFFFF" stroke-width="3.6917" stroke-linecap="round" d="
	M931.602,685.187c0.217-6.259-1.687-10.177-3.685-14.731"/>
<line fill-rule="evenodd" clip-rule="evenodd" fill="none" stroke="#FFFFFF" stroke-width="1.9064" stroke-linecap="round" x1="931.602" y1="685.187" x2="938.966" y2="681.503"/>
<path fill-rule="evenodd" clip-rule="evenodd" fill="none" stroke="#FFFFFF" stroke-width="2.8138" stroke-linecap="round" d="
	M957.378,707.282c17.781,4.94,23.09,40.936,3.818,45.829C956.876,739.36,953.225,721.577,957.378,707.282"/>
<path fill-rule="evenodd" clip-rule="evenodd" fill="none" stroke="#FFFFFF" stroke-width="5.1331" stroke-linecap="round" d="
	M957.378,707.282c0-12.273,0-27.057,0-36.826"/>
<path fill-rule="evenodd" clip-rule="evenodd" fill="none" stroke="#FFFFFF" stroke-width="1.9064" stroke-linecap="round" d="
	M114.098,666.774c23.058,9.471,3.792,15.229,14.728,36.826C107.366,704.72,106.453,673.735,114.098,666.774z"/>
<path fill-rule="evenodd" clip-rule="evenodd" fill="none" stroke="#FFFFFF" stroke-width="1.9064" stroke-linecap="round" d="
	M187.742,681.503c0-4.908,0-9.821,0-14.729c4.911,0,9.824,0,14.731,0c0,4.908,0,9.821,0,14.729
	C197.566,681.503,192.652,681.503,187.742,681.503z"/>
<path fill-rule="evenodd" clip-rule="evenodd" fill="none" stroke="#FFFFFF" stroke-width="1.9064" stroke-linecap="round" d="
	M158.284,703.6c4.911,0,9.82,0,14.727,0c0,4.908,0,9.815,0,14.728c-4.907,0-9.816,0-14.727,0
	C158.284,713.416,158.284,708.508,158.284,703.6z"/>
<path fill-rule="evenodd" clip-rule="evenodd" fill="none" stroke="#FFFFFF" stroke-width="1.9064" stroke-linecap="round" d="
	M121.461,740.422c4.907,0,9.814,0,14.728,0c0,4.914,0,9.822,0,14.728c-4.914,0-9.821,0-14.728,0
	C121.461,750.245,121.461,745.336,121.461,740.422z"/>
<path fill-rule="evenodd" clip-rule="evenodd" fill="none" stroke="#FFFFFF" stroke-width="1.9064" stroke-linecap="round" d="
	M357.137,659.411c-6.265-1.356-6.949,2.87-7.364,7.363"/>
<line fill-rule="evenodd" clip-rule="evenodd" fill="none" stroke="#FFFFFF" stroke-width="1.9064" stroke-linecap="round" x1="349.773" y1="666.774" x2="346.091" y2="663.092"/>
<path fill-rule="evenodd" clip-rule="evenodd" fill="none" stroke="#FFFFFF" stroke-width="2.3411" stroke-linecap="round" d="
	M346.091,663.092c-3.021,32.215,2.942,64.524,5.039,93.618c-3.207,2.018-5.929,2.923-8.628,3.77
	c-19.498-18.57-7.413-51.604-18.509-75.293"/>
<line fill-rule="evenodd" clip-rule="evenodd" fill="none" stroke="#FFFFFF" stroke-width="1.9064" stroke-linecap="round" x1="346.091" y1="663.092" x2="342.406" y2="659.411"/>
<path fill-rule="evenodd" clip-rule="evenodd" fill="none" stroke="#FFFFFF" stroke-width="1.9064" stroke-linecap="round" d="
	M342.406,659.411c-15.973,1.239-3.337-26.122-7.364-36.827c23.084-3.448,20.761,18.518,29.462,29.457"/>
<line fill-rule="evenodd" clip-rule="evenodd" fill="none" stroke="#FFFFFF" stroke-width="1.9064" stroke-linecap="round" x1="364.504" y1="652.041" x2="357.137" y2="652.041"/>
<line fill-rule="evenodd" clip-rule="evenodd" fill="none" stroke="#FFFFFF" stroke-width="1.9064" stroke-linecap="round" x1="336.264" y1="562.438" x2="335.042" y2="571.028"/>
<path fill-rule="evenodd" clip-rule="evenodd" fill="none" stroke="#FFFFFF" stroke-width="1.9064" stroke-linecap="round" d="
	M335.042,571.028c2.078,19.261-2.692,31.682-22.097,29.463c-5.722-6.557-7.916-16.631-7.365-29.463"/>
<line fill-rule="evenodd" clip-rule="evenodd" fill="none" stroke="#FFFFFF" stroke-width="1.9064" stroke-linecap="round" x1="305.581" y1="571.028" x2="305.581" y2="563.667"/>
<path fill-rule="evenodd" clip-rule="evenodd" fill="none" stroke="#FFFFFF" stroke-width="2.3469" stroke-linecap="round" d="
	M309.266,663.092c3.679,26.889-7.573,58.883,5.979,82.507c1.471,6.882-2.513,13.197-6.882,18.468
	c-16.541-5.869-16.314-27.982-19.701-43.547c-11.269-51.751-22.098-125.129,16.918-156.854"/>
<path fill-rule="evenodd" clip-rule="evenodd" fill="none" stroke="#FFFFFF" stroke-width="3.4913" stroke-linecap="round" d="
	M305.581,563.667c-2.722-112.576,8.008-277.212-5.992-399.081c-0.674-5.848-6.962-14.845,2.313-24.405"/>
<line fill-rule="evenodd" clip-rule="evenodd" fill="none" stroke="#FFFFFF" stroke-width="1.9064" stroke-linecap="round" x1="301.902" y1="140.181" x2="290.85" y2="143.867"/>
<path fill-rule="evenodd" clip-rule="evenodd" fill="none" stroke="#FFFFFF" stroke-width="1.9064" stroke-linecap="round" d="
	M290.85,143.867c7.992-18.865-22.372-35.114,0-44.194"/>
<line fill-rule="evenodd" clip-rule="evenodd" fill="none" stroke="#FFFFFF" stroke-width="1.9064" stroke-linecap="round" x1="290.85" y1="99.672" x2="298.214" y2="110.719"/>
<line fill-rule="evenodd" clip-rule="evenodd" fill="none" stroke="#FFFFFF" stroke-width="1.9064" stroke-linecap="round" x1="298.214" y1="95.991" x2="290.85" y2="99.672"/>
<path fill-rule="evenodd" clip-rule="evenodd" fill="none" stroke="#FFFFFF" stroke-width="1.9064" stroke-linecap="round" d="
	M290.85,99.672c0-2.452,0-4.909,0-7.364"/>
<line fill-rule="evenodd" clip-rule="evenodd" fill="none" stroke="#FFFFFF" stroke-width="1.9064" stroke-linecap="round" x1="290.85" y1="92.308" x2="298.214" y2="95.991"/>
<path fill-rule="evenodd" clip-rule="evenodd" fill="none" stroke="#FFFFFF" stroke-width="7.6255" stroke-linecap="round" d="
	M92,97.831c0,1.231,0,2.456,0,3.682"/>
<path fill-rule="evenodd" clip-rule="evenodd" fill="none" stroke="#FFFFFF" stroke-width="5.9272" stroke-linecap="round" d="
	M92,101.513c2.493,6.278,15.285,19.614,18.409,31.302"/>
<path fill-rule="evenodd" clip-rule="evenodd" fill="none" stroke="#FFFFFF" stroke-width="2.895" stroke-linecap="round" d="
	M110.41,132.815c-1.703,137.997,12.171,285.088,14.734,427.166"/>
<path fill-rule="evenodd" clip-rule="evenodd" fill="none" stroke="#FFFFFF" stroke-width="2.6032" stroke-linecap="round" d="
	M125.144,559.981c145.053,13.371,135.724,198.861,27.918,234.143C29.267,834.637-64.789,650.631,60.493,568.997
	c10.854-1.436,23.549-1.013,31.507-5.33"/>
<path fill-rule="evenodd" clip-rule="evenodd" fill="none" stroke="#FFFFFF" stroke-width="4.1846" stroke-linecap="round" d="
	M51.489,62.851c15.95,1.342,34.608-4.46,47.875,7.364"/>
<path fill-rule="evenodd" clip-rule="evenodd" fill="none" stroke="#FFFFFF" stroke-width="2.8566" stroke-linecap="round" d="
	M99.364,70.214c65.55-15.378,135.681-13.491,202.538-7.364"/>
<path fill-rule="evenodd" clip-rule="evenodd" fill="none" stroke="#FFFFFF" stroke-width="2.9709" stroke-linecap="round" d="
	M301.902,62.851c5.684-3.204,18.014-4.211,26.998,1.225"/>
<path fill-rule="evenodd" clip-rule="evenodd" fill="none" stroke="#FFFFFF" stroke-width="3.057" stroke-linecap="round" d="
	M328.9,64.075c52.244-8.798,105.15-3.969,157.121,2.457"/>
<path fill-rule="evenodd" clip-rule="evenodd" fill="none" stroke="#FFFFFF" stroke-width="2.2912" stroke-linecap="round" d="
	M486.021,66.532c7.302-6.198,18.397-8.095,22.095,0"/>
<path fill-rule="evenodd" clip-rule="evenodd" fill="none" stroke="#FFFFFF" stroke-width="3.1979" stroke-linecap="round" d="
	M508.116,66.532c53.309,2.834,105.167-5.387,158.351-3.682"/>
<path fill-rule="evenodd" clip-rule="evenodd" fill="none" stroke="#FFFFFF" stroke-width="2.3348" stroke-linecap="round" d="
	M666.466,62.851c6.5-3.32,16.459-3.177,25.775-3.682"/>
<path fill-rule="evenodd" clip-rule="evenodd" fill="none" stroke="#FFFFFF" stroke-width="2.8018" stroke-linecap="round" d="
	M692.242,59.168c60.406-0.702,120.604-0.151,180.444,3.682"/>
<path fill-rule="evenodd" clip-rule="evenodd" fill="none" stroke="#FFFFFF" stroke-width="2.696" stroke-linecap="round" d="
	M872.686,62.851c9.441-4.868,19.435-0.99,25.775,0"/>
<path fill-rule="evenodd" clip-rule="evenodd" fill="none" stroke="#FFFFFF" stroke-width="2.5152" stroke-linecap="round" d="
	M898.461,62.851c31.909,5.643,67.913,6.421,99.427,0"/>
<path fill-rule="evenodd" clip-rule="evenodd" fill="none" stroke="#FFFFFF" stroke-width="2.579" stroke-linecap="round" d="
	M997.888,62.851c-31.934-74.559,106.82-87.077,75.099-5.946c-3.795,2.079-8.135,5.813-12.497,9.628"/>
<path fill-rule="evenodd" clip-rule="evenodd" fill="none" stroke="#FFFFFF" stroke-width="2.3348" stroke-linecap="round" d="
	M898.461,88.625c0,4.912,0,9.821,0,14.729"/>
<line fill-rule="evenodd" clip-rule="evenodd" fill="none" stroke="#FFFFFF" stroke-width="1.9064" stroke-linecap="round" x1="898.461" y1="103.354" x2="902.14" y2="99.672"/>
<path fill-rule="evenodd" clip-rule="evenodd" fill="none" stroke="#FFFFFF" stroke-width="1.9064" stroke-linecap="round" d="
	M902.14,99.672c3.188,19.822,27.644,37.773,7.364,58.922"/>
<line fill-rule="evenodd" clip-rule="evenodd" fill="none" stroke="#FFFFFF" stroke-width="1.9064" stroke-linecap="round" x1="909.504" y1="158.595" x2="905.827" y2="154.914"/>
<path fill-rule="evenodd" clip-rule="evenodd" fill="none" stroke="#FFFFFF" stroke-width="3.238" stroke-linecap="round" d="
	M886.184,572.256c6.156-137.833-4.054-281.296-12.276-419.8"/>
<path fill-rule="evenodd" clip-rule="evenodd" fill="none" stroke="#FFFFFF" stroke-width="2.2912" stroke-linecap="round" d="
	M873.908,152.457c-3.989-2.29-7.154-4.474-10.278-6.654c-1.761-8.297-1.732-18.121-1.996-27.715"/>
<line fill-rule="evenodd" clip-rule="evenodd" fill="none" stroke="#FFFFFF" stroke-width="1.9064" stroke-linecap="round" x1="861.633" y1="118.087" x2="857.952" y2="121.77"/>
<path fill-rule="evenodd" clip-rule="evenodd" fill="none" stroke="#FFFFFF" stroke-width="1.9064" stroke-linecap="round" d="
	M857.952,121.77c-3.121-15.398,5.046-19.501,7.363-29.462"/>
<line fill-rule="evenodd" clip-rule="evenodd" fill="none" stroke="#FFFFFF" stroke-width="1.9064" stroke-linecap="round" x1="865.315" y1="92.308" x2="872.686" y2="88.625"/>
<path fill-rule="evenodd" clip-rule="evenodd" fill="none" stroke="#FFFFFF" stroke-width="2.4611" stroke-linecap="round" d="
	M692.242,88.625c-0.44,4.472-2.035,7.787-3.682,11.047"/>
<path fill-rule="evenodd" clip-rule="evenodd" fill="none" stroke="#FFFFFF" stroke-width="2.696" stroke-linecap="round" d="
	M688.56,99.672c15.033,5.606,22.383,21.973,20.93,36.83c-4.217,2.807-10.797,2.553-16.279,2.475c-1.549-0.83-3.104-1.653-4.65-2.479
	"/>
<path fill-rule="evenodd" clip-rule="evenodd" fill="none" stroke="#FFFFFF" stroke-width="2.626" stroke-linecap="round" d="
	M681.195,143.867c8.222,79.05,2.979,161.613,19.134,238.634c4.746,5.078,10.956,8.679,15.604,13.854
	c11.377-0.778,22.921,3.674,24.18,16.329"/>
<path fill-rule="evenodd" clip-rule="evenodd" fill="none" stroke="#FFFFFF" stroke-width="2.9709" stroke-linecap="round" d="
	M508.116,88.625c-0.003,12.218-2.792,17.997-9.816,34.37"/>
<path fill-rule="evenodd" clip-rule="evenodd" fill="none" stroke="#FFFFFF" stroke-width="7.975" stroke-linecap="round" d="
	M498.299,122.995c0.816,0.818,1.636,1.638,2.45,2.457"/>
<path fill-rule="evenodd" clip-rule="evenodd" fill="none" stroke="#FFFFFF" stroke-width="3.0284" stroke-linecap="round" d="
	M500.749,125.452c2.463,0.359,4.927,0.713,7.39,1.075c4.522,1.208,7.637,2.317,10.684,3.419
	c-13.073,133.521-1.56,278.505,7.709,415.304"/>
<path fill-rule="evenodd" clip-rule="evenodd" fill="none" stroke="#FFFFFF" stroke-width="2.663" stroke-linecap="round" d="
	M526.532,545.25c52.798-9.566,106.107,38.114,88.375,92.063"/>
<path fill-rule="evenodd" clip-rule="evenodd" fill="none" stroke="#FFFFFF" stroke-width="2.3898" stroke-linecap="round" d="
	M327.675,84.943c-3.316,6.504-3.177,16.464-3.682,25.776"/>
<path fill-rule="evenodd" clip-rule="evenodd" fill="none" stroke="#FFFFFF" stroke-width="2.166" stroke-linecap="round" d="
	M323.993,110.719c4.39,10.322,24.549,29.11,7.372,36.829"/>
<path fill-rule="evenodd" clip-rule="evenodd" fill="none" stroke="#FFFFFF" stroke-width="2.9763" stroke-linecap="round" d="
	M331.364,147.548c-2.727,137.012-1.314,277.362,4.9,414.89"/>
<path fill-rule="evenodd" clip-rule="evenodd" fill="none" stroke="#FFFFFF" stroke-width="2.3366" stroke-linecap="round" d="
	M336.264,562.438c58.698,38.589,44.833,129.857,44.302,194.223c-23.438-23.408-9.106-72.249-23.429-104.62"/>
<line fill-rule="evenodd" clip-rule="evenodd" fill="none" stroke="#FFFFFF" stroke-width="1.9064" stroke-linecap="round" x1="357.137" y1="652.041" x2="357.137" y2="659.411"/>
<path fill-rule="evenodd" clip-rule="evenodd" fill="none" stroke="#FFFFFF" stroke-width="2.7207" stroke-linecap="round" d="
	M474.976,143.867c-0.893,1.629-1.79,3.26-2.683,4.89c-0.806,10.717,6.281,16.268,12.098,22.523
	c-0.6,126.282,14.087,253.435,12.679,377.656"/>
<path fill-rule="evenodd" clip-rule="evenodd" fill="none" stroke="#FFFFFF" stroke-width="2.4611" stroke-linecap="round" d="
	M497.07,548.935c2.367,4.999,4.492,10.236,7.364,14.731"/>
<path fill-rule="evenodd" clip-rule="evenodd" fill="none" stroke="#FFFFFF" stroke-width="3.9989" stroke-linecap="round" d="
	M504.435,563.667c4.677,0,12.758,0,20.254,0"/>
<path fill-rule="evenodd" clip-rule="evenodd" fill="none" stroke="#FFFFFF" stroke-width="4.0887" stroke-linecap="round" d="
	M526.532,545.25c0.107,7.583-0.843,13.055-1.843,18.417"/>
<path fill-rule="evenodd" clip-rule="evenodd" fill="none" stroke="#FFFFFF" stroke-width="3.0072" stroke-linecap="round" d="
	M497.07,548.935c-43.196-0.808-73.292,41.806-65.885,83.231c3.608,4.377,5.95,8.029,6.969,12.513"/>
<path fill-rule="evenodd" clip-rule="evenodd" fill="none" stroke="#FFFFFF" stroke-width="3.19" stroke-linecap="round" d="
	M438.154,644.679c9.03,4.413,15.996,6.731,20.864,8.593"/>
<path fill-rule="evenodd" clip-rule="evenodd" fill="none" stroke="#FFFFFF" stroke-width="2.4114" stroke-linecap="round" d="
	M459.018,653.272c27.193-46.131,105.607-45.711,133.794-1.231"/>
<path fill-rule="evenodd" clip-rule="evenodd" fill="none" stroke="#FFFFFF" stroke-width="2.5511" stroke-linecap="round" d="
	M459.018,653.272c28.195,41.617,103.208,29.352,133.794-1.231"/>
<path fill-rule="evenodd" clip-rule="evenodd" fill="none" stroke="#FFFFFF" stroke-width="2.4649" stroke-linecap="round" d="
	M438.154,644.679c-0.896,1.599-1.789,3.189-2.688,4.79c3.416,111.809,193.693,96.794,179.441-12.156"/>
<path fill-rule="evenodd" clip-rule="evenodd" fill="none" stroke="#FFFFFF" stroke-width="2.6046" stroke-linecap="round" d="
	M614.907,637.313c-7.083,6.978-15.833,10.274-22.095,14.728"/>
<path fill-rule="evenodd" clip-rule="evenodd" fill="none" stroke="#FFFFFF" stroke-width="1.9064" stroke-linecap="round" d="
	M320.313,114.404c-21.75,6.403,17.087,11.027,7.362,29.462"/>
<line fill-rule="evenodd" clip-rule="evenodd" fill="none" stroke="#FFFFFF" stroke-width="1.9064" stroke-linecap="round" x1="327.675" y1="143.867" x2="323.993" y2="147.548"/>
<path fill-rule="evenodd" clip-rule="evenodd" fill="none" stroke="#FFFFFF" stroke-width="2.3348" stroke-linecap="round" d="
	M323.993,110.719c-2.456,0-4.906,0-7.363,0"/>
<line fill-rule="evenodd" clip-rule="evenodd" fill="none" stroke="#FFFFFF" stroke-width="1.9064" stroke-linecap="round" x1="316.63" y1="110.719" x2="320.313" y2="114.404"/>
<path fill-rule="evenodd" clip-rule="evenodd" fill="none" stroke="#FFFFFF" stroke-width="4.0998" stroke-linecap="round" d="
	M110.41,132.815c-6.491,7.648-18.025,10.455-25.78,11.051"/>
<path fill-rule="evenodd" clip-rule="evenodd" fill="none" stroke="#FFFFFF" stroke-width="3.4283" stroke-linecap="round" d="
	M84.63,143.867C95.942,279.835,95.968,425.732,92,563.667"/>
<path fill-rule="evenodd" clip-rule="evenodd" fill="none" stroke="#FFFFFF" stroke-width="2.3699" stroke-linecap="round" d="
	M92,563.667c6.563,14.956,4.548,31.927,3.682,47.872"/>
<path fill-rule="evenodd" clip-rule="evenodd" fill="none" stroke="#FFFFFF" stroke-width="2.6104" stroke-linecap="round" d="
	M997.888,62.851c8.579,4.304,21.746,3.776,29.456,0"/>
<path fill-rule="evenodd" clip-rule="evenodd" fill="none" stroke="#FFFFFF" stroke-width="3.3625" stroke-linecap="round" d="
	M1027.344,62.851c-0.054-8.625-0.432-22.32,1.72-27.429c3.015-2.014,9.385,0.574,14.74,3.739c2.511,9.005,8,15.458,16.686,27.372"/>
<path fill-rule="evenodd" clip-rule="evenodd" fill="none" stroke="#FFFFFF" stroke-width="2.696" stroke-linecap="round" d="
	M1027.344,62.851c8.263,4.006,23.79,3.267,33.146,3.682"/>
<path fill-rule="evenodd" clip-rule="evenodd" fill="none" stroke="#FFFFFF" stroke-width="2.3876" stroke-linecap="round" d="
	M99.364,86.784c65.786,6.557,134.115-4.142,198.85,5.524"/>
<path fill-rule="evenodd" clip-rule="evenodd" fill="none" stroke="#FFFFFF" stroke-width="2.3348" stroke-linecap="round" d="
	M298.214,92.308c3.32-5.916,3.181-17.088,3.688-29.458"/>
<path fill-rule="evenodd" clip-rule="evenodd" fill="none" stroke="#FFFFFF" stroke-width="1.9064" stroke-linecap="round" d="
	M305.581,92.308c0,2.456,0,4.913,0,7.364"/>
<line fill-rule="evenodd" clip-rule="evenodd" fill="none" stroke="#FFFFFF" stroke-width="1.9064" stroke-linecap="round" x1="305.581" y1="99.672" x2="298.214" y2="95.991"/>
<path fill-rule="evenodd" clip-rule="evenodd" fill="none" stroke="#FFFFFF" stroke-width="3.8128" stroke-linecap="round" d="
	M298.214,95.991c0,4.911,0,9.823,0,14.729"/>
<line fill-rule="evenodd" clip-rule="evenodd" fill="none" stroke="#FFFFFF" stroke-width="1.9064" stroke-linecap="round" x1="298.214" y1="110.719" x2="305.581" y2="99.672"/>
<path fill-rule="evenodd" clip-rule="evenodd" fill="none" stroke="#FFFFFF" stroke-width="1.9064" stroke-linecap="round" d="
	M305.581,99.672c6.265-1.352,6.946,2.875,7.365,7.364"/>
<line fill-rule="evenodd" clip-rule="evenodd" fill="none" stroke="#FFFFFF" stroke-width="1.9064" stroke-linecap="round" x1="312.945" y1="107.036" x2="316.63" y2="110.719"/>
<path fill-rule="evenodd" clip-rule="evenodd" fill="none" stroke="#FFFFFF" stroke-width="3.8128" stroke-linecap="round" d="
	M298.214,92.308c0,1.229,0,2.456,0,3.683"/>
<line fill-rule="evenodd" clip-rule="evenodd" fill="none" stroke="#FFFFFF" stroke-width="1.9064" stroke-linecap="round" x1="298.214" y1="95.991" x2="305.581" y2="92.308"/>
<path fill-rule="evenodd" clip-rule="evenodd" fill="none" stroke="#FFFFFF" stroke-width="4.044" stroke-linecap="round" d="
	M328.9,64.075c-1.103,5.981-1.055,14.779-1.225,20.868"/>
<path fill-rule="evenodd" clip-rule="evenodd" fill="none" stroke="#FFFFFF" stroke-width="2.3348" stroke-linecap="round" d="
	M327.675,84.943c51.391,8.398,105.798,1.367,158.346,3.682"/>
<path fill-rule="evenodd" clip-rule="evenodd" fill="none" stroke="#FFFFFF" stroke-width="2.3348" stroke-linecap="round" d="
	M486.021,66.532c0,7.364,0,14.729,0,22.093"/>
<path fill-rule="evenodd" clip-rule="evenodd" fill="none" stroke="#FFFFFF" stroke-width="2.3348" stroke-linecap="round" d="
	M486.021,88.625c0.216,7.584-1.679,13.051-3.681,18.411"/>
<path fill-rule="evenodd" clip-rule="evenodd" fill="none" stroke="#FFFFFF" stroke-width="4.2628" stroke-linecap="round" d="
	M482.34,107.036c4.286,4.286,9.708,9.71,15.959,15.959"/>
<path fill-rule="evenodd" clip-rule="evenodd" fill="none" stroke="#FFFFFF" stroke-width="4.044" stroke-linecap="round" d="
	M666.466,92.308c0.143,2.308,0.681,4.233,1.225,6.138"/>
<path fill-rule="evenodd" clip-rule="evenodd" fill="none" stroke="#FFFFFF" stroke-width="4.044" stroke-linecap="round" d="
	M667.691,98.446c2.225,0.672,5.982,0.959,9.82,1.227"/>
<path fill-rule="evenodd" clip-rule="evenodd" fill="none" stroke="#FFFFFF" stroke-width="4.044" stroke-linecap="round" d="
	M677.511,99.672c4.469,0,7.789,0,11.049,0"/>
<path fill-rule="evenodd" clip-rule="evenodd" fill="none" stroke="#FFFFFF" stroke-width="2.3898" stroke-linecap="round" d="
	M666.466,62.851c4.299,8.579,3.774,21.746,0,29.458"/>
<path fill-rule="evenodd" clip-rule="evenodd" fill="none" stroke="#FFFFFF" stroke-width="2.3265" stroke-linecap="round" d="
	M692.242,88.625c60.145,0,120.293,0,180.444,0"/>
<path fill-rule="evenodd" clip-rule="evenodd" fill="none" stroke="#FFFFFF" stroke-width="2.2786" stroke-linecap="round" d="
	M692.242,59.168c0,9.816,0,19.641,0,29.457"/>
<path fill-rule="evenodd" clip-rule="evenodd" fill="none" stroke="#FFFFFF" stroke-width="1.9064" stroke-linecap="round" d="
	M880.049,92.308c0.199,7.163,9.01,5.716,14.729,7.364"/>
<line fill-rule="evenodd" clip-rule="evenodd" fill="none" stroke="#FFFFFF" stroke-width="1.9064" stroke-linecap="round" x1="894.778" y1="99.672" x2="898.461" y2="103.354"/>
<path fill-rule="evenodd" clip-rule="evenodd" fill="none" stroke="#FFFFFF" stroke-width="2.9709" stroke-linecap="round" d="
	M872.686,62.851c4.856,9.447,0.981,19.437,0,25.774"/>
<line fill-rule="evenodd" clip-rule="evenodd" fill="none" stroke="#FFFFFF" stroke-width="1.9064" stroke-linecap="round" x1="872.686" y1="88.625" x2="880.049" y2="92.308"/>
<path fill-rule="evenodd" clip-rule="evenodd" fill="none" stroke="#FFFFFF" stroke-width="6.8736" stroke-linecap="round" d="
	M92,97.831c2.456-3.682,4.907-7.365,7.363-11.047"/>
<path fill-rule="evenodd" clip-rule="evenodd" fill="none" stroke="#FFFFFF" stroke-width="7.7203" stroke-linecap="round" d="
	M99.364,86.784c0-6.29,0-11.643,0-16.57"/>
<path fill-rule="evenodd" clip-rule="evenodd" fill="none" stroke="#FFFFFF" stroke-width="3.2402" stroke-linecap="round" d="
	M51.489,62.851c-11.088-1.05-22.854,8.416-33.14,0"/>
<path fill-rule="evenodd" clip-rule="evenodd" fill="none" stroke="#FFFFFF" stroke-width="2.3348" stroke-linecap="round" d="
	M508.116,88.625c52.533,2.422,107.073-4.867,158.351,3.683"/>
<path fill-rule="evenodd" clip-rule="evenodd" fill="none" stroke="#FFFFFF" stroke-width="2.3348" stroke-linecap="round" d="
	M508.116,66.532c0,7.364,0,14.729,0,22.093"/>
<path fill-rule="evenodd" clip-rule="evenodd" fill="none" stroke="#FFFFFF" stroke-width="2.9379" stroke-linecap="round" d="
	M898.461,88.625c54.017,3.162,106.646,10.179,159.805-2.271c4.688-5.615,4.538-11.65,2.224-19.822"/>
<line fill-rule="evenodd" clip-rule="evenodd" fill="none" stroke="#FFFFFF" stroke-width="5.7191" stroke-linecap="round" x1="1060.49" y1="66.532" x2="1060.49" y2="66.532"/>
<path fill-rule="evenodd" clip-rule="evenodd" fill="none" stroke="#FFFFFF" stroke-width="2.2557" stroke-linecap="round" d="
	M898.461,62.851c0,9.945,0,17.54,0,25.774"/>
<path fill-rule="evenodd" clip-rule="evenodd" fill="none" stroke="#FFFFFF" stroke-width="2.3348" stroke-linecap="round" d="
	M662.783,140.181c7.577-0.215,13.048,1.682,18.412,3.686"/>
<path fill-rule="evenodd" clip-rule="evenodd" fill="none" stroke="#FFFFFF" stroke-width="2.696" stroke-linecap="round" d="
	M681.195,143.867c2.451-2.46,4.908-4.913,7.365-7.369"/>
<path fill-rule="evenodd" clip-rule="evenodd" fill="none" stroke="#FFFFFF" stroke-width="2.3348" stroke-linecap="round" d="
	M667.691,98.446c-8.326,12.062-3.464,28.014-4.908,41.735"/>
<path fill-rule="evenodd" clip-rule="evenodd" fill="none" stroke="#FFFFFF" stroke-width="2.912" stroke-linecap="round" d="
	M677.511,99.672c-4.283,14.646,12.308,22.727,11.049,36.825"/>
<path fill-rule="evenodd" clip-rule="evenodd" fill="none" stroke="#FFFFFF" stroke-width="2.7516" stroke-linecap="round" d="
	M92,101.513c-5.233,3.558-11.474,7.456-16.274,10.852c-3.772,11.404-0.598,20.753,8.904,31.502"/>
<path fill-rule="evenodd" clip-rule="evenodd" fill="none" stroke="#FFFFFF" stroke-width="3.302" stroke-linecap="round" d="
	M482.34,107.036c-20.66,0.076-12.765,25.527-7.364,36.831"/>
<path fill-rule="evenodd" clip-rule="evenodd" fill="none" stroke="#FFFFFF" stroke-width="4.3099" stroke-linecap="round" d="
	M474.976,143.867c6.876,3.516,12.948,6.248,19.529,6.074c5.634-6.919,5.215-16.914,6.245-24.489"/>
<path fill-rule="evenodd" clip-rule="evenodd" fill="none" stroke="#FFFFFF" stroke-width="1.9064" stroke-linecap="round" d="
	M880.049,143.867c-6.341-5.947-4.376-20.178-14.734-22.097"/>
<line fill-rule="evenodd" clip-rule="evenodd" fill="none" stroke="#FFFFFF" stroke-width="1.9064" stroke-linecap="round" x1="865.315" y1="121.77" x2="861.633" y2="118.087"/>
<path fill-rule="evenodd" clip-rule="evenodd" fill="none" stroke="#FFFFFF" stroke-width="4.044" stroke-linecap="round" d="
	M873.908,152.457c2.224-0.671,5.985-0.961,9.824-1.226"/>
<line fill-rule="evenodd" clip-rule="evenodd" fill="none" stroke="#FFFFFF" stroke-width="1.9064" stroke-linecap="round" x1="883.732" y1="151.231" x2="880.049" y2="143.867"/>
<path fill-rule="evenodd" clip-rule="evenodd" fill="none" stroke="#FFFFFF" stroke-width="3.5433" stroke-linecap="round" d="
	M667.691,415.139c12.488,6.81,27.011,6.433,39.278,12.273"/>
<path fill-rule="evenodd" clip-rule="evenodd" fill="none" stroke="#FFFFFF" stroke-width="2.696" stroke-linecap="round" d="
	M706.969,427.413c12.663,2.24,27.542-3.125,33.144-14.729"/>
<path fill-rule="evenodd" clip-rule="evenodd" fill="none" stroke="#FFFFFF" stroke-width="3.768" stroke-linecap="round" d="
	M662.783,140.181c5.719,91.13,2.094,183.358,4.908,274.958"/>
<path fill-rule="evenodd" clip-rule="evenodd" fill="none" stroke="#FFFFFF" stroke-width="1.9064" stroke-linecap="round" d="
	M312.945,563.667c4.909,0,9.82,0,14.729,0"/>
<line fill-rule="evenodd" clip-rule="evenodd" fill="none" stroke="#FFFFFF" stroke-width="1.9064" stroke-linecap="round" x1="327.675" y1="563.667" x2="336.264" y2="562.438"/>
<path fill-rule="evenodd" clip-rule="evenodd" fill="none" stroke="#FFFFFF" stroke-width="1.9064" stroke-linecap="round" d="
	M331.364,147.548c-2.464,0-4.914,0-7.372,0"/>
<line fill-rule="evenodd" clip-rule="evenodd" fill="none" stroke="#FFFFFF" stroke-width="1.9064" stroke-linecap="round" x1="323.993" y1="147.548" x2="327.675" y2="151.231"/>
<path fill-rule="evenodd" clip-rule="evenodd" fill="none" stroke="#FFFFFF" stroke-width="1.9064" stroke-linecap="round" d="
	M327.675,151.231c-10.899,8.526-18.562,8.526-29.461,0"/>
<line fill-rule="evenodd" clip-rule="evenodd" fill="none" stroke="#FFFFFF" stroke-width="1.9064" stroke-linecap="round" x1="298.214" y1="151.231" x2="301.902" y2="140.181"/>
<line fill-rule="evenodd" clip-rule="evenodd" fill="none" stroke="#FFFFFF" stroke-width="1.9064" stroke-linecap="round" x1="305.581" y1="563.667" x2="312.945" y2="563.667"/>
<path fill-rule="evenodd" clip-rule="evenodd" fill="none" stroke="#FFFFFF" stroke-width="1.9064" stroke-linecap="round" d="
	M902.14,151.231c-5.922,3.894-11.958,7.681-22.091,7.364"/>
<line fill-rule="evenodd" clip-rule="evenodd" fill="none" stroke="#FFFFFF" stroke-width="1.9064" stroke-linecap="round" x1="880.049" y1="158.595" x2="883.732" y2="151.231"/>
<path fill-rule="evenodd" clip-rule="evenodd" fill="none" stroke="#FFFFFF" stroke-width="4.2628" stroke-linecap="round" d="
	M886.184,572.256c1.022,2.047,2.046,4.092,3.068,6.142"/>
<path fill-rule="evenodd" clip-rule="evenodd" fill="none" stroke="#FFFFFF" stroke-width="3.302" stroke-linecap="round" d="
	M889.252,578.398c11.271-0.212,19.516-3.118,27.618-7.37"/>
<path fill-rule="evenodd" clip-rule="evenodd" fill="none" stroke="#FFFFFF" stroke-width="3.0698" stroke-linecap="round" d="
	M916.871,571.028c-8.953-136.804-20.327-280.733-11.044-416.114"/>
<line fill-rule="evenodd" clip-rule="evenodd" fill="none" stroke="#FFFFFF" stroke-width="1.9064" stroke-linecap="round" x1="905.827" y1="154.914" x2="902.14" y2="151.231"/>
<path fill-rule="evenodd" clip-rule="evenodd" fill="none" stroke="#FFFFFF" stroke-width="2.9273" stroke-linecap="round" d="
	M688.56,622.583c34.135,20.742,75.297,4.158,111.95,1.479c5.245-4.571,10.04-9.604,15.281-14.18
	c15.063-60.721,26.889-142.719-14.731-195.549c-20.121-3.185-40.655-0.955-60.947-1.651"/>
<path fill-rule="evenodd" clip-rule="evenodd" fill="none" stroke="#FFFFFF" stroke-width="3.025" stroke-linecap="round" d="
	M688.56,622.583c28.823-58.048,22.104-130.369,18.409-195.171"/>
<path fill-rule="evenodd" clip-rule="evenodd" fill="none" stroke="#FFFFFF" stroke-width="2.696" stroke-linecap="round" d="
	M667.691,415.139c-24.212,47.503-44.475,195.578,20.869,207.444"/>
<path fill-rule="evenodd" clip-rule="evenodd" fill="none" stroke="#FFFFFF" stroke-width="2.9026" stroke-linecap="round" d="
	M504.435,563.667c-3.812,8.083-4.505,22.466-1.431,30.906c6.278,1.979,12.486,1.216,17.681-0.103
	c5.081-6.354,5.811-15.817,5.27-26.115c-0.425-1.563-0.847-3.126-1.265-4.688"/>
<path fill-rule="evenodd" clip-rule="evenodd" fill="none" stroke="#FFFFFF" stroke-width="2.6201" stroke-linecap="round" d="
	M920.553,574.715c-0.137,12.141,1.069,25.618-2.204,34.618c-2.447,2.422-4.708,5.192-6.959,7.978
	c-19.018,4.453-23.877-20.458-23.353-34.482c0.404-1.479,0.81-2.958,1.215-4.431"/>
<path fill-rule="evenodd" clip-rule="evenodd" fill="none" stroke="#FFFFFF" stroke-width="2.788" stroke-linecap="round" d="
	M886.184,572.256c-70.643,16.312-61.738,120.307-60.575,178.49c44.919,32.057,103.988,47.438,159.026,50.066
	c9.435-66.502,16.195-198.404-64.082-226.098"/>
<path fill-rule="evenodd" clip-rule="evenodd" fill="none" stroke="#FFFFFF" stroke-width="3.302" stroke-linecap="round" d="
	M920.553,574.715c-1.229-1.229-2.45-2.459-3.683-3.688"/>
<path fill-rule="evenodd" clip-rule="evenodd" fill="none" stroke="#FFFFFF" stroke-width="2.2904" stroke-linecap="round" d="
	M125.144,559.981c0.714,20.091,1.697,40.065-9.465,56.928c-5.95,1.768-13.094-1.809-19.997-5.37"/>
<path fill-rule="evenodd" clip-rule="evenodd" fill="none" stroke="#FFFFFF" stroke-width="2.2877" stroke-linecap="round" d="
	M95.682,611.539c-4.03,4.911-5.753,9.819-7.367,14.728"/>
<path fill-rule="evenodd" clip-rule="evenodd" fill="none" stroke="#FFFFFF" stroke-width="1.9535" stroke-linecap="round" d="
	M88.315,626.266c2.205,7.794,9.113,11.372,14.731,14.727"/>
<path fill-rule="evenodd" clip-rule="evenodd" fill="none" stroke="#FFFFFF" stroke-width="2.5357" stroke-linecap="round" d="
	M88.315,626.266c-8.097-0.296-12.433,1.735-15.756,4.03c-0.538,13.451,6.016,25.02,12.071,36.478"/>
<path fill-rule="evenodd" clip-rule="evenodd" fill="none" stroke="#FFFFFF" stroke-width="2.696" stroke-linecap="round" d="
	M84.63,666.774c4.788,2.581,11.926,2.811,18.417,3.682"/>
<path fill-rule="evenodd" clip-rule="evenodd" fill="none" stroke="#FFFFFF" stroke-width="2.3348" stroke-linecap="round" d="
	M84.63,666.774c-4.781,2.581-11.912,2.811-18.409,3.682"/>
<path fill-rule="evenodd" clip-rule="evenodd" fill="none" stroke="#FFFFFF" stroke-width="2.3988" stroke-linecap="round" d="
	M66.221,670.456c-0.203,7.657-1.358,12.997-1.849,18.07c4.914,3.62,14.86,3.477,23.943,4.029"/>
<path fill-rule="evenodd" clip-rule="evenodd" fill="none" stroke="#FFFFFF" stroke-width="2.5859" stroke-linecap="round" d="
	M66.221,670.456c-3.715-10.348-9.877-16.234-14.731-22.095"/>
<path fill-rule="evenodd" clip-rule="evenodd" fill="none" stroke="#FFFFFF" stroke-width="2.5219" stroke-linecap="round" d="
	M139.871,663.092c6.693,1.102,6.816,4.553,7.367,7.363"/>
<path fill-rule="evenodd" clip-rule="evenodd" fill="none" stroke="#FFFFFF" stroke-width="2.3348" stroke-linecap="round" d="
	M161.966,655.726c0-4.905,0-9.819,0-14.733"/>
<path fill-rule="evenodd" clip-rule="evenodd" fill="none" stroke="#FFFFFF" stroke-width="2.3348" stroke-linecap="round" d="
	M191.42,692.555c4.03,0.877,5.759,4.066,7.37,7.363"/>
<path fill-rule="evenodd" clip-rule="evenodd" fill="none" stroke="#FFFFFF" stroke-width="2.6079" stroke-linecap="round" d="
	M147.238,699.918c-1.269,1.22-2.537,2.436-3.809,3.658c-0.01,10.231-0.528,39.076,11.172,40.527"/>
<path fill-rule="evenodd" clip-rule="evenodd" fill="none" stroke="#FFFFFF" stroke-width="2.4971" stroke-linecap="round" d="
	M44.127,714.646c-4.427,15.955,26.725,19.392,30.507,3.857C65.912,711.96,53.608,702.446,44.127,714.646"/>
<path fill-rule="evenodd" clip-rule="evenodd" fill="none" stroke="#FFFFFF" stroke-width="2.6179" stroke-linecap="round" d="
	M103.046,736.741c11.51-3.716,14.982-9.877,14.73-14.729"/>
<path fill-rule="evenodd" clip-rule="evenodd" fill="none" stroke="#FFFFFF" stroke-width="1.9064" stroke-linecap="round" d="
	M865.315,681.503c13.413,9.163,14.741,68.255-14.726,58.919c0-19.641,0-39.278,0-58.919"/>
<line fill-rule="evenodd" clip-rule="evenodd" fill="none" stroke="#FFFFFF" stroke-width="1.9064" stroke-linecap="round" x1="850.589" y1="681.503" x2="857.952" y2="685.187"/>
<path fill-rule="evenodd" clip-rule="evenodd" fill="none" stroke="#FFFFFF" stroke-width="4.0118" stroke-linecap="round" d="
	M857.952,685.187c0-10.403,0-19.013,0-25.776"/>
<line fill-rule="evenodd" clip-rule="evenodd" fill="none" stroke="#FFFFFF" stroke-width="1.9064" stroke-linecap="round" x1="857.952" y1="685.187" x2="865.315" y2="681.503"/>
</svg>
