<?xml version="1.0" encoding="utf-8"?>
<!-- Generator: Adobe Illustrator 15.0.0, SVG Export Plug-In  -->
<!DOCTYPE svg PUBLIC "-//W3C//DTD SVG 1.1//EN" "http://www.w3.org/Graphics/SVG/1.1/DTD/svg11.dtd" [
	<!ENTITY ns_flows "http://ns.adobe.com/Flows/1.0/">
]>
<svg version="1.1"
	 xmlns="http://www.w3.org/2000/svg" xmlns:xlink="http://www.w3.org/1999/xlink" xmlns:a="http://ns.adobe.com/AdobeSVGViewerExtensions/3.0/"
	 x="0px" y="0px" width="1280px" height="800px" viewBox="-11.165 0 1280 800" enable-background="new -11.165 0 1280 800"
	 xml:space="preserve">
<defs>
</defs>
<path fill-rule="evenodd" clip-rule="evenodd" d="M993.85,339.147c-1.491,30.818-17.635,46.97-48.446,48.448
	c-2.627-60.034-110.108,59.436-157.458,72.672C836.676,399.997,895.464,349.768,993.85,339.147z"/>
<path fill-rule="evenodd" clip-rule="evenodd" fill="#FFFFFF" d="M824.282,617.724c-24.461,39.979,134.841,54.48,96.896,109.009
	c-140.151-46.337-428.559-106.406-641.939-48.448c6.364-122.629-25.501-150.869,12.112-242.242
	c298.07-23.538,501.587,47.491,666.164,157.457c-10.15,26.188-31.369,41.316-24.226,84.785
	C885.8,669.248,867.478,631.042,824.282,617.724z"/>
<path fill-rule="evenodd" clip-rule="evenodd" d="M1078.636,351.259c196.618,26.128,165.393,309.266,121.12,436.035
	c-119.157-6.583-220.028-86.731-290.689-36.337c-160.923-70.425-434.166-98.025-641.939-48.449
	c-18.026-45.39-18.05-135.91-12.112-169.568c-39.352,9.103-42.913,53.984-84.785,60.561c-71.347-1.33-89.492-55.853-133.232-84.783
	C66.71,461.314-7.713,389.126,0.662,302.81c3.595-37.2,36.608-28.559,60.56-84.784c35.662-83.743,29.523-158.13,121.121-169.568
	c44.225-5.524,80.596,19.351,133.232,36.336C405.102,73.355,429.386,1.186,509.368,0.009c53.558-0.786,88.688,50.66,145.345,60.561
	c41.163,7.192,88.569-10.758,133.232,0c72.058,17.369,124.054,87.6,193.793,84.784
	C1024.815,203.2,1066.024,262.932,1078.636,351.259z M957.515,581.388c48.613,14.459-19.552,61.926-12.111,109.008
	c71.181,62.595,154.64,38.602,254.353,72.673c36.288-61.536-2.673-139.005-48.448-157.457c21.089-0.91,37.659,2.702,48.448,12.112
	c29.003-84.849-0.215-196.336-60.561-230.129c-23.821-3.625-24.024,16.354-36.337,24.225
	c-77.226-84.277-53.663-269.329-218.018-266.466c-11.591,22.556,36.266,40.482,0,48.449
	C882.901,74.615,751.361,85.036,642.602,72.682c-15.993,30.315,47.879,37.915,12.111,48.448
	c-48.52-107.867-217-119.896-290.69-24.224c31.014,1.277,57.733,6.854,72.673,24.224C289.458,103.588,90.153,3.729,73.333,205.914
	c18.121,2.064,44.687-4.329,48.448,12.112c-53.842-5.387-64.097,32.806-96.896,48.449c9.296,45.645-14.785,57.899-12.112,96.896
	c26.046,38.547,67.894,61.293,84.784,109.007c-38.915,7.459-16.607-43.591-48.448-12.111
	c13.768,66.965,55.521,105.969,133.233,109.009c13.282-39.199,67.089-37.868,72.672-84.784
	c-34.763-50.335-125.946-66.132-169.569-72.672c60.892-36.284,131.813,21.29,169.569,48.447
	c7.653-77.125,130.288-39.276,205.905-48.447c-13.839-51.246-7.144-28.667,24.224-12.113c3.939-44.917-52.162-92.383-36.336-109.008
	c27.974,28.547,50.483,62.559,48.448,121.122c55.273-6.831,75.417,21.468,133.231,12.111c42.37-101.676-5.653-221.779,0-302.802
	c41.826,77.499,49.68,225.398,12.114,314.913c104.845,24.35,194.052,64.327,278.576,109.009
	c5.714-31.309,82.325-54.001,109.009-24.224c-41.943-8.836-110.843,17.275-84.783,36.336
	c61.836-17.175,142.34,51.252,181.681,96.897c-34.812,2.507-61.532-3.07-72.674-24.226c22.651,0.651,25.644-9.325,12.111-24.224
	C1024.852,610.249,991.012,544.779,957.515,581.388z M933.289,678.285c-7.144-43.469,14.075-58.598,24.226-84.785
	C792.938,483.534,589.421,412.504,291.351,436.042c-37.614,91.373-5.749,119.613-12.112,242.242
	c213.381-57.958,501.788,2.111,641.939,48.448c37.945-54.528-121.356-69.03-96.896-109.009
	C867.478,631.042,885.8,669.248,933.289,678.285z"/>
<path fill-rule="evenodd" clip-rule="evenodd" fill="#FFFFFF" d="M1066.521,605.612c13.532,14.898,10.54,24.875-12.111,24.224
	c11.142,21.155,37.862,26.732,72.674,24.226c-39.341-45.646-119.845-114.072-181.681-96.897
	c-26.06-19.061,42.84-45.172,84.783-36.336c-26.684-29.777-103.295-7.085-109.009,24.224
	c-84.524-44.682-173.731-84.659-278.576-109.009c37.565-89.515,29.712-237.414-12.114-314.913
	c-5.653,81.023,42.37,201.126,0,302.802c-57.815,9.356-77.958-18.942-133.231-12.111c2.035-58.563-20.475-92.574-48.448-121.122
	c-15.826,16.625,40.275,64.091,36.336,109.008c-31.368-16.553-38.063-39.133-24.224,12.113
	c-75.617,9.171-198.252-28.678-205.905,48.447c-37.755-27.157-108.677-84.731-169.569-48.447
	c43.623,6.54,134.806,22.337,169.569,72.672c-5.583,46.916-59.39,45.585-72.672,84.784c-77.712-3.04-119.465-42.044-133.233-109.009
	c31.841-31.479,9.534,19.57,48.448,12.111c-16.89-47.714-58.738-70.46-84.784-109.007c-2.673-38.998,21.409-51.252,12.112-96.896
	c32.799-15.643,43.054-53.836,96.896-48.449c-3.761-16.441-30.327-10.048-48.448-12.112
	c16.82-202.185,216.125-102.326,363.362-84.785c-14.939-17.37-41.659-22.947-72.673-24.224
	c73.69-95.672,242.17-83.643,290.69,24.224c35.768-10.533-28.104-18.132-12.111-48.448c108.76,12.354,240.3,1.934,242.239,121.121
	c36.266-7.967-11.591-25.893,0-48.449c164.354-2.862,140.792,182.189,218.018,266.466c12.313-7.871,12.516-27.851,36.337-24.225
	c60.346,33.793,89.563,145.281,60.561,230.129c-10.789-9.41-27.359-13.022-48.448-12.112
	c45.775,18.452,84.736,95.921,48.448,157.457c-99.713-34.071-183.172-10.078-254.353-72.673
	c-7.44-47.082,60.725-94.549,12.111-109.008C991.012,544.779,1024.852,610.249,1066.521,605.612z M787.945,460.267
	c47.35-13.236,154.831-132.707,157.458-72.672c30.812-1.478,46.955-17.63,48.446-48.448
	C895.464,349.768,836.676,399.997,787.945,460.267z"/>
</svg>
