<?xml version="1.0" encoding="utf-8"?>
<!-- Generator: Adobe Illustrator 15.0.0, SVG Export Plug-In  -->
<!DOCTYPE svg PUBLIC "-//W3C//DTD SVG 1.1//EN" "http://www.w3.org/Graphics/SVG/1.1/DTD/svg11.dtd" [
	<!ENTITY ns_flows "http://ns.adobe.com/Flows/1.0/">
]>
<svg version="1.1"
	 xmlns="http://www.w3.org/2000/svg" xmlns:xlink="http://www.w3.org/1999/xlink" xmlns:a="http://ns.adobe.com/AdobeSVGViewerExtensions/3.0/"
	 x="0px" y="0px" width="1280px" height="800px" viewBox="-1.697 -43.51 1280 800" enable-background="new -1.697 -43.51 1280 800"
	 xml:space="preserve">
<defs>
</defs>
<path fill-rule="evenodd" clip-rule="evenodd" fill="#FFFFFF" d="M926.708,166.036c14.062-33.652-81.422-79.723-128.313-99.799
	c150.548-90.207,234.559,98.49,327.912,156.827c12.864-47.261-79.207-61.845-42.771-85.542
	c210.43-37.37,228.948,332.249,128.313,427.71c-62.652-27.644-42.465-138.12-128.313-142.569
	c-25.479,26.439,75.629,47.226,71.285,99.798c5.876,67.667-53.826,69.734-57.028,128.314
	C899.42,561.118,618.315,384.486,356.426,493.948c50.123-35.511,241.089-161.875,327.912-156.828
	c78.107,4.538,96.348,93.102,185.342,85.542c-46.461-29.579-85.389-66.685-142.57-85.542c2.145-35.462,48.284-4.17,57.028,0
	c-216.223-88.626-587.491,323.511-698.596-28.515c-46.572,20.293,47.63,92.711,14.257,99.799
	c-45.486,12.225-44.094-22.438-71.286-28.515c-11.89-178.213,111.188-221.478,242.37-256.626
	c-2.701,11.549-14.313,14.208-14.257,28.514C416.656-12.769,779.335-4.771,926.708,166.036z"/>
<path fill-rule="evenodd" clip-rule="evenodd" d="M1197.592,123.264c88.132,76.604,105.814,289.067,71.285,441.968
	c-71.327,35.253-182.585,11.737-156.828,171.086c-210.876-83.142-525.7-108.141-812.651-71.286
	c30.324-40.961,0.39-142.188,28.514-185.342C181.833,478.438,67.108,445.853,0,365.634c11.612-69.168,37.508-124.066,57.028-185.341
	c218.269-51.835,440.2-265.879,698.595-142.571C941.633-56.292,996.642,146.544,1197.592,123.264z M256.626,151.778
	c-0.056-14.305,11.556-16.964,14.257-28.514c-131.182,35.149-254.26,78.414-242.37,256.626c27.191,6.077,25.8,40.739,71.286,28.515
	c33.373-7.088-60.829-79.506-14.257-99.799c111.105,352.026,482.373-60.112,698.596,28.515c-8.744-4.17-54.884-35.462-57.028,0
	c57.182,18.858,96.109,55.963,142.57,85.542c-88.994,7.56-107.234-81.004-185.342-85.542
	c-86.823-5.047-277.79,121.317-327.912,156.828c261.89-109.462,542.994,67.17,741.366,156.827
	c3.202-58.58,62.904-60.647,57.028-128.314c4.344-52.572-96.764-73.358-71.285-99.798c85.849,4.449,65.661,114.926,128.313,142.569
	c100.635-95.462,82.116-465.08-128.313-427.71c-36.436,23.697,55.636,38.281,42.771,85.542
	C1032.953,164.727,948.942-23.97,798.395,66.237c46.892,20.076,142.375,66.147,128.313,99.799
	C779.335-4.771,416.656-12.769,256.626,151.778z M342.169,522.461c-1.699,41.072,7.797,93.334-14.257,114.058
	c275.172-49.644,585.821,20.411,769.88,57.027C901.702,587.446,624.219,409.276,342.169,522.461z"/>
<path fill-rule="evenodd" clip-rule="evenodd" fill="#FFFFFF" d="M1097.792,693.546c-184.06-36.616-494.708-106.671-769.88-57.027
	c22.054-20.724,12.559-72.985,14.257-114.058C624.219,409.276,901.702,587.446,1097.792,693.546z M841.166,579.49
	c-35.03-26.746-97.669-25.896-142.571-42.771c-28.513,0-57.028,0-85.542,0c-2.395,30.916,50.567,6.459,71.285,14.257
	c55.831,11.124,155.045,53.472,199.6,28.515C869.68,579.49,855.422,579.49,841.166,579.49z"/>
<path fill-rule="evenodd" clip-rule="evenodd" d="M883.938,579.49c-44.555,24.957-143.769-17.391-199.6-28.515
	c-20.718-7.798-73.68,16.659-71.285-14.257c28.513,0,57.029,0,85.542,0c44.902,16.876,107.541,16.025,142.571,42.771
	C855.422,579.49,869.68,579.49,883.938,579.49z"/>
</svg>
