<?xml version="1.0" standalone="no"?>
<!DOCTYPE svg PUBLIC "-//W3C//DTD SVG 20010904//EN"
 "http://www.w3.org/TR/2001/REC-SVG-20010904/DTD/svg10.dtd">
<svg version="1.0" xmlns="http://www.w3.org/2000/svg"
 width="105.000000pt" height="183.000000pt" viewBox="0 0 105.000000 183.000000"
 preserveAspectRatio="xMidYMid meet">
<metadata>
Created by potrace 1.15, written by Peter Selinger 2001-2017
</metadata>
<g transform="translate(0.000000,183.000000) scale(0.100000,-0.100000)"
fill="#000000" stroke="none">
<path d="M220 1644 c-56 -9 -100 -26 -100 -39 0 -58 41 -75 187 -75 l118 0 0
-43 c0 -64 34 -110 107 -146 77 -39 159 -42 225 -10 24 11 43 24 43 28 0 5 9
19 21 32 19 22 21 34 17 126 -2 56 -6 104 -8 107 -18 18 -516 34 -610 20z
m413 -19 c181 -7 183 -8 191 -84 7 -60 -6 -141 -23 -141 -5 0 -11 -9 -14 -20
-3 -11 -13 -23 -24 -26 -10 -3 -33 -13 -52 -21 -28 -13 -44 -13 -90 -4 -116
23 -187 95 -177 179 l6 42 -135 0 c-122 0 -137 2 -155 20 -27 27 -25 36 8 45
33 10 232 22 287 18 22 -1 102 -5 178 -8z"/>
<path d="M460 1520 c0 -71 76 -120 183 -120 83 0 131 19 151 59 30 58 24 67
-51 74 -38 4 -116 7 -175 7 -102 0 -108 -1 -108 -20z m326 -12 c13 -14 -14
-57 -48 -75 -88 -47 -258 4 -258 77 0 13 293 11 306 -2z"/>
<path d="M205 1357 c-66 -21 -86 -91 -41 -144 23 -27 23 -30 7 -40 -42 -26
-29 -126 17 -145 15 -5 52 -21 82 -33 30 -13 64 -27 75 -30 16 -6 9 -13 -43
-37 -69 -33 -122 -41 -130 -19 -3 10 3 12 26 6 25 -5 33 -2 41 14 26 47 9 71
-48 71 -80 0 -96 -146 -20 -186 35 -18 36 -27 4 -42 -52 -24 -41 -125 16 -144
7 -2 -2 -17 -20 -35 -41 -41 -42 -85 -3 -121 l27 -25 -27 -28 c-34 -34 -35
-62 -3 -94 29 -30 45 -32 45 -5 0 19 7 20 170 20 l170 0 6 27 c4 14 3 38 -2
52 -7 18 -6 34 3 51 19 36 16 55 -12 88 -35 42 -92 61 -198 68 -95 6 -137 18
-137 40 0 27 113 29 283 8 39 -6 47 -10 47 -28 0 -32 15 -48 41 -44 18 2 25
10 27 31 l3 28 68 -7 c65 -6 67 -6 79 20 7 15 12 40 12 56 0 26 -4 29 -50 39
-28 6 -67 11 -85 11 -28 0 -35 4 -35 20 0 15 -7 20 -25 20 -17 0 -25 -5 -25
-17 0 -17 -12 -18 -146 -15 -81 2 -156 7 -168 12 -21 8 -21 8 -1 15 11 4 47
18 79 31 33 14 78 27 102 31 39 5 43 3 58 -25 23 -44 33 -47 71 -17 46 34 46
66 1 111 -30 30 -41 34 -88 35 -116 3 -135 7 -184 32 -59 30 -77 63 -38 73 13
3 88 1 166 -5 112 -8 144 -8 150 2 12 18 10 71 -3 84 -8 8 -7 17 5 34 36 53 8
114 -66 144 -56 22 -228 30 -283 12z m237 -18 c60 -13 108 -54 108 -93 0 -16
-11 -33 -32 -50 -23 -18 -28 -26 -16 -26 22 0 47 -36 41 -59 -4 -17 -17 -18
-180 -13 l-176 5 7 -27 c9 -36 -9 -33 -25 5 -10 27 -10 36 2 58 8 14 25 27 37
29 30 5 28 12 -14 45 -30 25 -35 34 -32 65 2 31 9 40 38 54 41 21 160 24 242
7z m-212 -371 c0 -24 -15 -35 -45 -34 -35 1 -45 -23 -19 -49 13 -12 26 -15 52
-10 50 9 136 49 162 75 32 32 109 24 150 -15 34 -33 37 -51 13 -77 -22 -25
-41 -23 -55 7 -21 46 -67 45 -193 -6 -40 -16 -85 -29 -99 -29 -49 0 -74 80
-40 128 17 24 74 32 74 10z m393 -208 c65 0 118 -12 124 -26 3 -8 2 -26 -1
-40 -7 -26 -7 -26 -81 -19 l-75 7 0 -31 c0 -21 -5 -31 -15 -31 -10 0 -15 10
-15 33 l0 34 -139 12 c-77 7 -148 11 -158 8 -10 -3 -30 -8 -45 -11 -16 -4 -28
-13 -28 -21 0 -20 -16 -19 -24 1 -17 43 1 84 36 84 10 0 18 4 18 9 0 8 38 7
268 -3 78 -4 82 -3 83 18 2 20 2 20 6 -1 4 -20 11 -23 46 -23z m-158 -170 c38
-15 85 -59 85 -81 0 -9 -10 -29 -22 -44 -19 -25 -20 -28 -5 -37 10 -5 17 -21
17 -38 l0 -30 -175 0 c-155 0 -175 -2 -175 -16 0 -14 -3 -14 -15 -4 -8 7 -15
20 -15 29 0 22 36 61 55 61 23 0 18 11 -20 46 -44 40 -45 70 -4 109 l32 30
106 -6 c58 -4 120 -12 136 -19z"/>
<path d="M223 1283 c-26 -5 -28 -12 -12 -47 20 -44 69 -59 181 -54 98 4 117
11 118 44 0 14 -60 40 -120 54 -45 10 -125 11 -167 3z"/>
<path d="M223 544 c-13 -3 -23 -9 -23 -14 0 -23 25 -58 52 -75 41 -24 151 -31
202 -12 48 16 68 43 46 57 -46 31 -216 57 -277 44z m181 -29 c90 -24 98 -31
54 -49 -47 -20 -128 -20 -175 -1 -37 16 -65 44 -57 57 9 13 117 9 178 -7z"/>
</g>
</svg>
