<?xml version="1.0" encoding="utf-8"?>
<!-- Generator: Adobe Illustrator 15.0.0, SVG Export Plug-In  -->
<!DOCTYPE svg PUBLIC "-//W3C//DTD SVG 1.1//EN" "http://www.w3.org/Graphics/SVG/1.1/DTD/svg11.dtd" [
	<!ENTITY ns_flows "http://ns.adobe.com/Flows/1.0/">
]>
<svg version="1.1"
	 xmlns="http://www.w3.org/2000/svg" xmlns:xlink="http://www.w3.org/1999/xlink" xmlns:a="http://ns.adobe.com/AdobeSVGViewerExtensions/3.0/"
	 x="0px" y="0px" width="1280px" height="800px" viewBox="-865.61 -245.262 1280 800"
	 enable-background="new -865.61 -245.262 1280 800" xml:space="preserve">
<defs>
</defs>
<path fill-rule="evenodd" clip-rule="evenodd" fill="none" stroke="#000000" stroke-width="0.75" stroke-linecap="round" d="
	M31.39,10.738c-10.91-1.757-30.275,4.941-31-7c4.372-2.212,10.075-2.663,16-3c17.421-0.99,36.854,0.166,53,2
	c1.902,7.901,2.291,16.611,0,22c-0.199,0.469-1.83,0.624-2,1c-0.591,1.313-0.411,2.756-2,4c-1.189,0.932-2.333,0.27-4,1
	c-0.407,0.178-1.743,1.945-2,2C45.307,35.754,25.998,25.693,31.39,10.738z"/>
<path fill-rule="evenodd" clip-rule="evenodd" fill="none" stroke="#000000" stroke-width="0.75" stroke-linecap="round" d="
	M67.39,12.738c1.501,17.076-34.813,14.128-33-1C42.479,11.318,57.449,11.768,67.39,12.738z"/>
<path fill-rule="evenodd" clip-rule="evenodd" fill="none" stroke="#000000" stroke-width="0.75" stroke-linecap="round" d="
	M10.39,85.738c8.655,2.678,23.345-0.678,32,2c2.716,0.715-0.715-4.716,2-4c3.008-1.008,1.772,2.228,2,4
	c6.817-0.484,11.956,0.711,17,2c0.512,4.178-0.558,6.775-2,9c-5.782,0.783-8.549-1.451-14-1c-2.259-0.469,2.303,5.426-1,6
	c-4.758,1.092-4.08-3.253-4-7c-11.802,0.023-24.979-4.238-35,0c0,0.666,0,1.333,0,2"/>
<line fill-rule="evenodd" clip-rule="evenodd" fill="none" stroke="#000000" stroke-width="0.75" stroke-linecap="round" x1="7.39" y1="98.738" x2="6.557" y2="99.571"/>
<path fill-rule="evenodd" clip-rule="evenodd" fill="none" stroke="#000000" stroke-width="0.75" stroke-linecap="round" d="
	M6.557,99.571c0.937,0.73,1.691,1.643,2.667,2.333"/>
<line fill-rule="evenodd" clip-rule="evenodd" fill="none" stroke="#000000" stroke-width="0.75" stroke-linecap="round" x1="9.224" y1="101.904" x2="9.39" y2="100.738"/>
<path fill-rule="evenodd" clip-rule="evenodd" fill="none" stroke="#000000" stroke-width="0.75" stroke-linecap="round" d="
	M9.39,100.738c0.891,0.443,1.789,0.878,2,2c14.166-0.166,27.768,0.232,32,10c0.054,4.054-2.005,5.995-4,8c3.558,0.038,3.96,6.54,2,9
	c-7.708,0.25-23.063-0.179-34,0c0,1,0,2,0,3"/>
<line fill-rule="evenodd" clip-rule="evenodd" fill="none" stroke="#000000" stroke-width="0.75" stroke-linecap="round" x1="7.39" y1="132.738" x2="6.39" y2="132.238"/>
<path fill-rule="evenodd" clip-rule="evenodd" fill="none" stroke="#000000" stroke-width="0.75" stroke-linecap="round" d="
	M6.39,132.238c0.358,0.679,0.78,1.391,1,2"/>
<line fill-rule="evenodd" clip-rule="evenodd" fill="none" stroke="#000000" stroke-width="0.75" stroke-linecap="round" x1="6.39" y1="132.238" x2="5.39" y2="132.738"/>
<path fill-rule="evenodd" clip-rule="evenodd" fill="none" stroke="#000000" stroke-width="0.75" stroke-linecap="round" d="
	M5.39,132.738c-5.854-3.021-1.875-11.992,4-12c-1.906-2.396-6.582-3.822-7-8c-0.388-3.884,1.678-7.666,6-9c0-0.334,0-0.667,0-1"/>
<line fill-rule="evenodd" clip-rule="evenodd" fill="none" stroke="#000000" stroke-width="0.75" stroke-linecap="round" x1="8.39" y1="102.738" x2="9.224" y2="101.904"/>
<line fill-rule="evenodd" clip-rule="evenodd" fill="none" stroke="#000000" stroke-width="0.75" stroke-linecap="round" x1="6.557" y1="99.571" x2="6.39" y2="100.738"/>
<path fill-rule="evenodd" clip-rule="evenodd" fill="none" stroke="#000000" stroke-width="0.75" stroke-linecap="round" d="
	M6.39,100.738c-5.393-1.459-5.84-13.99,2-13c0-0.667,0-1.334,0-2"/>
<line fill-rule="evenodd" clip-rule="evenodd" fill="none" stroke="#000000" stroke-width="0.75" stroke-linecap="round" x1="8.39" y1="85.738" x2="9.39" y2="86.238"/>
<line fill-rule="evenodd" clip-rule="evenodd" fill="none" stroke="#000000" stroke-width="0.75" stroke-linecap="round" x1="6.39" y1="82.238" x2="5.39" y2="82.738"/>
<path fill-rule="evenodd" clip-rule="evenodd" fill="none" stroke="#000000" stroke-width="0.75" stroke-linecap="round" d="
	M5.39,82.738c-8.564-2.738-5.681-22.711,6-16c-0.083,1.584,0.481,3.814-1,4c0.328,4.658-5.224-1.455-7,2
	c0.813,6.534,6.574,3.263,11,2c3.73-1.064,9.477-4.568,11-6"/>
<line fill-rule="evenodd" clip-rule="evenodd" fill="none" stroke="#000000" stroke-width="0.75" stroke-linecap="round" x1="25.39" y1="68.738" x2="25.89" y2="67.738"/>
<line fill-rule="evenodd" clip-rule="evenodd" fill="none" stroke="#000000" stroke-width="0.75" stroke-linecap="round" x1="7.557" y1="60.571" x2="7.39" y2="61.738"/>
<path fill-rule="evenodd" clip-rule="evenodd" fill="none" stroke="#000000" stroke-width="0.75" stroke-linecap="round" d="
	M7.39,61.738c-6.235-2.609-6.87-14.982,2-15c-3.311-2.783-6.645-4.25-7-8c-0.122-1.293,0.327-4.881,1-6
	c2.776-4.614,18.14-4.972,28-3c3.542,0.708,5.333,1.288,8,3c4.19,2.689,6.994,10.967-1,14c4.797,1.398,5.596,5.557,3,10
	c-12.98-0.968-26.266-2.428-34-1c-0.127,1.793,1.225,2.109,1,4"/>
<line fill-rule="evenodd" clip-rule="evenodd" fill="none" stroke="#000000" stroke-width="0.75" stroke-linecap="round" x1="8.39" y1="59.738" x2="7.557" y2="60.571"/>
<path fill-rule="evenodd" clip-rule="evenodd" fill="none" stroke="#000000" stroke-width="0.75" stroke-linecap="round" d="
	M7.557,60.571c5.695,2.935,11.451,7.157,18.333,7.167"/>
<line fill-rule="evenodd" clip-rule="evenodd" fill="none" stroke="#000000" stroke-width="0.75" stroke-linecap="round" x1="25.89" y1="67.738" x2="25.39" y2="66.738"/>
<path fill-rule="evenodd" clip-rule="evenodd" fill="none" stroke="#000000" stroke-width="0.75" stroke-linecap="round" d="
	M25.39,66.738c2.635,1.055,8.046-0.109,12,1c2.479,0.695,7.581,5.076,7,9c-0.547,3.694-2.74,3.227-6,6c-3.172-1.162-2.464-6.203-6-7
	c-10.743-0.076-15.247,6.086-25,7"/>
<line fill-rule="evenodd" clip-rule="evenodd" fill="none" stroke="#000000" stroke-width="0.75" stroke-linecap="round" x1="7.39" y1="82.738" x2="6.39" y2="82.238"/>
<path fill-rule="evenodd" clip-rule="evenodd" fill="none" stroke="#000000" stroke-width="0.75" stroke-linecap="round" d="
	M6.39,82.238c-0.136,1.58,1.434,2.461,2.733,2.723c0.145,0.279,0.207,0.773,0.267,1.277"/>
<line fill-rule="evenodd" clip-rule="evenodd" fill="none" stroke="#000000" stroke-width="0.75" stroke-linecap="round" x1="9.39" y1="86.238" x2="10.39" y2="85.738"/>
<path fill-rule="evenodd" clip-rule="evenodd" fill="none" stroke="#000000" stroke-width="0.75" stroke-linecap="round" d="
	M37.39,41.738c0.282,1.615-0.944,1.722-1,3c-8.359,1.965-26.763,3.936-28-7C18.213,35.269,30.927,37.611,37.39,41.738z"/>
<path fill-rule="evenodd" clip-rule="evenodd" fill="none" stroke="#000000" stroke-width="0.75" stroke-linecap="round" d="
	M37.39,115.738c0.163,1.162-0.221,1.779-1,2c-7.286,5.404-27.171,4.27-28-6C18.203,109.277,30.534,112.004,37.39,115.738z"/>
</svg>
