<?xml version="1.0" encoding="utf-8"?>
<!-- Generator: Adobe Illustrator 15.0.0, SVG Export Plug-In  -->
<!DOCTYPE svg PUBLIC "-//W3C//DTD SVG 1.1//EN" "http://www.w3.org/Graphics/SVG/1.1/DTD/svg11.dtd" [
	<!ENTITY ns_flows "http://ns.adobe.com/Flows/1.0/">
]>
<svg version="1.1"
	 xmlns="http://www.w3.org/2000/svg" xmlns:xlink="http://www.w3.org/1999/xlink" xmlns:a="http://ns.adobe.com/AdobeSVGViewerExtensions/3.0/"
	 x="0px" y="0px" width="1280px" height="800px" viewBox="-1.625 -35.438 1280 800"
	 enable-background="new -1.625 -35.438 1280 800" xml:space="preserve">
<defs>
</defs>
<path fill-rule="evenodd" clip-rule="evenodd" fill="none" stroke="#000000" stroke-width="1" stroke-linecap="round" d="
	M667.269,633.347C644.318,665.285,600.31,621.279,667.269,633.347L667.269,633.347z"/>
<path fill-rule="evenodd" clip-rule="evenodd" fill="none" stroke="#000000" stroke-width="1" stroke-linecap="round" d="
	M1169.123,319.686c28.017,31.223,48.601,69.889,52.275,125.464c-21.665-6.218-68.674,12.916-73.187-10.455"/>
<line fill-rule="evenodd" clip-rule="evenodd" fill="none" stroke="#000000" stroke-width="1" stroke-linecap="round" x1="1148.211" y1="434.695" x2="1153.44" y2="424.24"/>
<path fill-rule="evenodd" clip-rule="evenodd" fill="none" stroke="#000000" stroke-width="1.8257" stroke-linecap="round" d="
	M855.46,131.489c52.809,6.585,113.172,8.056,156.83,41.822"/>
<path fill-rule="evenodd" clip-rule="evenodd" fill="none" stroke="#000000" stroke-width="3.3166" stroke-linecap="round" d="
	M1012.291,173.311c13.275,5.83,27.979,3.869,41.822,6.973"/>
<path fill-rule="evenodd" clip-rule="evenodd" fill="none" stroke="#000000" stroke-width="1.9922" stroke-linecap="round" d="
	M1054.113,180.284c71.676,4.82,88.933,89.126,104.553,144.63"/>
<line fill-rule="evenodd" clip-rule="evenodd" fill="none" stroke="#000000" stroke-width="1" stroke-linecap="round" x1="1158.666" y1="324.914" x2="1169.123" y2="319.686"/>
<path fill-rule="evenodd" clip-rule="evenodd" fill="none" stroke="#000000" stroke-width="1" stroke-linecap="round" d="
	M1116.846,382.418c0-3.481,0-6.975,0-10.456"/>
<line fill-rule="evenodd" clip-rule="evenodd" fill="none" stroke="#000000" stroke-width="1" stroke-linecap="round" x1="1116.846" y1="371.962" x2="1132.528" y2="366.735"/>
<line fill-rule="evenodd" clip-rule="evenodd" fill="none" stroke="#000000" stroke-width="1" stroke-linecap="round" x1="1007.064" y1="340.597" x2="1012.291" y2="351.052"/>
<path fill-rule="evenodd" clip-rule="evenodd" fill="none" stroke="#000000" stroke-width="1" stroke-linecap="round" d="
	M1012.291,351.052c-16.562-0.869-39.88,5.023-41.821-10.456"/>
<line fill-rule="evenodd" clip-rule="evenodd" fill="none" stroke="#000000" stroke-width="1" stroke-linecap="round" x1="970.469" y1="340.597" x2="975.697" y2="330.141"/>
<path fill-rule="evenodd" clip-rule="evenodd" fill="none" stroke="#000000" stroke-width="2.2874" stroke-linecap="round" d="
	M847.62,298.775c-103.119-12.242-209.94-18.858-305.814-52.277"/>
<path fill-rule="evenodd" clip-rule="evenodd" fill="none" stroke="#000000" stroke-width="1.8974" stroke-linecap="round" d="
	M541.806,246.498c-17.94,1.103-37.013-0.052-52.277-10.455"/>
<path fill-rule="evenodd" clip-rule="evenodd" fill="none" stroke="#000000" stroke-width="1.633" stroke-linecap="round" d="
	M489.528,236.043c-31.121-1.451-62.691-10.405-88.871-26.139"/>
<path fill-rule="evenodd" clip-rule="evenodd" fill="none" stroke="#000000" stroke-width="1.2018" stroke-linecap="round" d="
	M499.984,215.132c-13.029-12.62-41.322,5.769-47.05-15.683"/>
<path fill-rule="evenodd" clip-rule="evenodd" fill="none" stroke="#000000" stroke-width="1.5861" stroke-linecap="round" d="
	M865.917,267.409c-164.38-44.21-334.792-76.709-501.852-115.009"/>
<path fill-rule="evenodd" clip-rule="evenodd" fill="none" stroke="#000000" stroke-width="1.4617" stroke-linecap="round" d="
	M1064.568,236.043c-173.309-36.329-405.517-48.489-553.087-110.854c0.061,0.031,3.859-8.781,4.187-9.383"/>
<path fill-rule="evenodd" clip-rule="evenodd" fill="none" stroke="#000000" stroke-width="1.1707" stroke-linecap="round" d="
	M515.667,115.806c-60.313-11.456-126.568,1.685-188.197-20.91"/>
<path fill-rule="evenodd" clip-rule="evenodd" fill="none" stroke="#000000" stroke-width="1.2012" stroke-linecap="round" d="
	M515.667,115.806c25.443-2.094,49.897,0.511,73.188,10.456"/>
<path fill-rule="evenodd" clip-rule="evenodd" fill="none" stroke="#000000" stroke-width="1.4142" stroke-linecap="round" d="
	M1012.291,173.311c-53.604,20.604-112.639-15.846-167.285-20.912"/>
<path fill-rule="evenodd" clip-rule="evenodd" fill="none" stroke="#000000" stroke-width="1.4037" stroke-linecap="round" d="
	M845.005,152.399c-154.763-33.071-311.593-63.946-465.258-99.325"/>
<path fill-rule="evenodd" clip-rule="evenodd" fill="none" stroke="#000000" stroke-width="1.8636" stroke-linecap="round" d="
	M855.46,131.489c-122.56-39.116-240.375-64.683-365.564-92.935c-87.768-19.808-183.234-54.921-260.751-27.619
	c25.669,302.45,290.146,275.842,509.577,331.396"/>
<path fill-rule="evenodd" clip-rule="evenodd" fill="none" stroke="#000000" stroke-width="1.1576" stroke-linecap="round" d="
	M738.722,342.333c12.764-18.838,42.781-23.994,59.238-6.964"/>
<path fill-rule="evenodd" clip-rule="evenodd" fill="none" stroke="#000000" stroke-width="2.1473" stroke-linecap="round" d="
	M738.722,342.333c1.143,1.807,2.286,3.614,3.439,5.421c31.622,3.268,57.475,17.409,90.657,15.489"/>
<path fill-rule="evenodd" clip-rule="evenodd" fill="none" stroke="#000000" stroke-width="1.2649" stroke-linecap="round" d="
	M832.819,363.243c4.268-8.617,10.084-13.478,17.413-17.419"/>
<path fill-rule="evenodd" clip-rule="evenodd" fill="none" stroke="#000000" stroke-width="2.1448" stroke-linecap="round" d="
	M832.819,363.243c1.145,1.807,2.288,3.614,3.441,5.422c15.361,6.688,32.944,0.316,48.831,5.033"/>
<path fill-rule="evenodd" clip-rule="evenodd" fill="none" stroke="#000000" stroke-width="1.2649" stroke-linecap="round" d="
	M885.091,373.698c4.267-8.617,10.088-13.477,17.419-17.418"/>
<path fill-rule="evenodd" clip-rule="evenodd" fill="none" stroke="#000000" stroke-width="2.8867" stroke-linecap="round" d="
	M885.091,373.698c1.145,1.808,2.288,3.614,3.45,5.422c31.92,10.119,66.204-1.746,97.612,8.526"/>
<path fill-rule="evenodd" clip-rule="evenodd" fill="none" stroke="#000000" stroke-width="1.5811" stroke-linecap="round" d="
	M986.154,387.646c6.982-5.719,13.945-8.169,20.91-10.457"/>
<path fill-rule="evenodd" clip-rule="evenodd" fill="none" stroke="#000000" stroke-width="2.1448" stroke-linecap="round" d="
	M986.154,387.646c7.697,24.902,37.553,10.904,55.769,17.419"/>
<path fill-rule="evenodd" clip-rule="evenodd" fill="none" stroke="#000000" stroke-width="1.2247" stroke-linecap="round" d="
	M1041.922,405.065c3.247-5.668,6.35-10.15,9.434-14.591c21.687-10.629,57.789,10.097,70.717-13.285"/>
<line fill-rule="evenodd" clip-rule="evenodd" fill="none" stroke="#000000" stroke-width="1" stroke-linecap="round" x1="1122.073" y1="377.189" x2="1116.846" y2="382.418"/>
<path fill-rule="evenodd" clip-rule="evenodd" fill="none" stroke="#000000" stroke-width="1.291" stroke-linecap="round" d="
	M855.46,131.489c-3.349,7.096-6.371,14.529-10.455,20.91"/>
<path fill-rule="evenodd" clip-rule="evenodd" fill="none" stroke="#000000" stroke-width="1" stroke-linecap="round" d="
	M1137.755,330.141c8.903,1.919,9.862-4.084,10.456-10.455"/>
<line fill-rule="evenodd" clip-rule="evenodd" fill="none" stroke="#000000" stroke-width="1" stroke-linecap="round" x1="1148.211" y1="319.686" x2="1158.666" y2="324.914"/>
<path fill-rule="evenodd" clip-rule="evenodd" fill="none" stroke="#000000" stroke-width="1.6202" stroke-linecap="round" d="
	M1054.113,180.284c0.53,18.726,2.572,38.738,10.455,55.76"/>
<path fill-rule="evenodd" clip-rule="evenodd" fill="none" stroke="#000000" stroke-width="1.834" stroke-linecap="round" d="
	M1064.568,236.043c8.924,20.358,23.402,39.779,24.402,62.731"/>
<path fill-rule="evenodd" clip-rule="evenodd" fill="none" stroke="#000000" stroke-width="2.1448" stroke-linecap="round" d="
	M1088.97,298.775c19.033,13.743,37.778,29.243,54.013,47.049"/>
<line fill-rule="evenodd" clip-rule="evenodd" fill="none" stroke="#000000" stroke-width="1" stroke-linecap="round" x1="1142.983" y1="345.824" x2="1137.755" y2="330.141"/>
<path fill-rule="evenodd" clip-rule="evenodd" fill="none" stroke="#000000" stroke-width="1.3009" stroke-linecap="round" d="
	M541.806,246.498c4.359-7.433,3.297-16.285,1.899-23.096c-14.274-2.828-32.531-2.063-43.721-8.271"/>
<path fill-rule="evenodd" clip-rule="evenodd" fill="none" stroke="#000000" stroke-width="1.291" stroke-linecap="round" d="
	M499.984,215.132c-3.35,7.096-6.372,14.53-10.456,20.912"/>
<path fill-rule="evenodd" clip-rule="evenodd" fill="none" stroke="#000000" stroke-width="1" stroke-linecap="round" d="
	M970.469,319.686c12.13-8.781,28.038-13.794,52.279-10.456c-1.982,8.465-10.477,10.425-10.458,20.911"/>
<line fill-rule="evenodd" clip-rule="evenodd" fill="none" stroke="#000000" stroke-width="1" stroke-linecap="round" x1="1012.291" y1="330.141" x2="1007.064" y2="340.597"/>
<path fill-rule="evenodd" clip-rule="evenodd" fill="none" stroke="#000000" stroke-width="2.6024" stroke-linecap="round" d="
	M1007.064,340.597c41.76,9.138,84.255,15.396,125.464,26.138"/>
<line fill-rule="evenodd" clip-rule="evenodd" fill="none" stroke="#000000" stroke-width="1" stroke-linecap="round" x1="1132.528" y1="366.735" x2="1127.299" y2="351.052"/>
<line fill-rule="evenodd" clip-rule="evenodd" fill="none" stroke="#000000" stroke-width="1" stroke-linecap="round" x1="1127.299" y1="351.052" x2="1127.299" y2="351.052"/>
<line fill-rule="evenodd" clip-rule="evenodd" fill="none" stroke="#000000" stroke-width="1" stroke-linecap="round" x1="1127.299" y1="351.052" x2="1142.983" y2="345.824"/>
<path fill-rule="evenodd" clip-rule="evenodd" fill="none" stroke="#000000" stroke-width="1.8011" stroke-linecap="round" d="
	M1088.97,298.775c-75.801,0.103-147.905-25.935-223.054-31.366"/>
<path fill-rule="evenodd" clip-rule="evenodd" fill="none" stroke="#000000" stroke-width="1.5811" stroke-linecap="round" d="
	M865.917,267.409c-4.45,10.058-12.845,22.483-18.297,31.366"/>
<path fill-rule="evenodd" clip-rule="evenodd" fill="none" stroke="#000000" stroke-width="3.3324" stroke-linecap="round" d="
	M847.62,298.775c42.822,8.965,86.686,17.827,128.077,31.366"/>
<line fill-rule="evenodd" clip-rule="evenodd" fill="none" stroke="#000000" stroke-width="1" stroke-linecap="round" x1="975.697" y1="330.141" x2="970.469" y2="319.686"/>
<path fill-rule="evenodd" clip-rule="evenodd" fill="none" stroke="#000000" stroke-width="1" stroke-linecap="round" d="
	M1148.211,413.784c8.904,1.919,9.862-4.084,10.454-10.455c-10.639-6.801-10.802-24.046-31.366-20.91"/>
<line fill-rule="evenodd" clip-rule="evenodd" fill="none" stroke="#000000" stroke-width="1" stroke-linecap="round" x1="1127.299" y1="382.418" x2="1122.073" y2="377.189"/>
<path fill-rule="evenodd" clip-rule="evenodd" fill="none" stroke="#000000" stroke-width="2.2887" stroke-linecap="round" d="
	M1041.922,405.065c1.144,1.806,2.288,3.613,3.451,5.421c36.45,1.429,70.818,16.868,108.066,13.754"/>
<line fill-rule="evenodd" clip-rule="evenodd" fill="none" stroke="#000000" stroke-width="1" stroke-linecap="round" x1="1153.44" y1="424.24" x2="1148.211" y2="413.784"/>
<path fill-rule="evenodd" clip-rule="evenodd" fill="none" stroke="#000000" stroke-width="1.1832" stroke-linecap="round" d="
	M724.773,209.904c13.949-1.654,27.886,1.776,41.822,10.456"/>
<path fill-rule="evenodd" clip-rule="evenodd" fill="none" stroke="#000000" stroke-width="1" stroke-linecap="round" d="
	M824.101,236.043c-22.913-24.709,43.408,1.694,62.726,0C873.942,267.808,850.886,224.699,824.101,236.043z"/>
<path fill-rule="evenodd" clip-rule="evenodd" fill="none" stroke="#000000" stroke-width="1.7612" stroke-linecap="round" d="
	M107.908,408.556c269.797,38.278,551.848,52.623,815.512,99.325"/>
<path fill-rule="evenodd" clip-rule="evenodd" fill="none" stroke="#000000" stroke-width="1" stroke-linecap="round" d="
	M1043.658,466.061c25.976-1.572,43.394,5.4,52.275,20.91"/>
<line fill-rule="evenodd" clip-rule="evenodd" fill="none" stroke="#000000" stroke-width="1" stroke-linecap="round" x1="1095.933" y1="486.971" x2="1090.707" y2="497.427"/>
<line fill-rule="evenodd" clip-rule="evenodd" fill="none" stroke="#000000" stroke-width="1" stroke-linecap="round" x1="222.917" y1="664.713" x2="228.145" y2="675.168"/>
<path fill-rule="evenodd" clip-rule="evenodd" fill="none" stroke="#000000" stroke-width="1" stroke-linecap="round" d="
	M228.145,675.168c-14.836,0.897-29.61,1.725-31.366-10.455"/>
<line fill-rule="evenodd" clip-rule="evenodd" fill="none" stroke="#000000" stroke-width="1" stroke-linecap="round" x1="196.779" y1="664.713" x2="202.006" y2="654.255"/>
<line fill-rule="evenodd" clip-rule="evenodd" fill="none" stroke="#000000" stroke-width="1" stroke-linecap="round" x1="1038.429" y1="481.744" x2="1043.658" y2="466.061"/>
<path fill-rule="evenodd" clip-rule="evenodd" fill="none" stroke="#000000" stroke-width="1" stroke-linecap="round" d="
	M1043.658,633.347c0-3.492,0-6.975,0-10.455"/>
<line fill-rule="evenodd" clip-rule="evenodd" fill="none" stroke="#000000" stroke-width="1" stroke-linecap="round" x1="1043.658" y1="622.892" x2="1059.34" y2="617.663"/>
<path fill-rule="evenodd" clip-rule="evenodd" fill="none" stroke="#000000" stroke-width="2.1602" stroke-linecap="round" d="
	M1059.34,617.663c-10.393-5.523-11.986-12.813-15.683-20.91"/>
<line fill-rule="evenodd" clip-rule="evenodd" fill="none" stroke="#000000" stroke-width="1" stroke-linecap="round" x1="1043.658" y1="596.752" x2="1033.202" y2="601.98"/>
<path fill-rule="evenodd" clip-rule="evenodd" fill="none" stroke="#000000" stroke-width="1" stroke-linecap="round" d="
	M1033.202,601.98c-13.723-3.696-16.438-18.409-31.366-20.91"/>
<line fill-rule="evenodd" clip-rule="evenodd" fill="none" stroke="#000000" stroke-width="1" stroke-linecap="round" x1="1001.835" y1="581.07" x2="1007.064" y2="570.614"/>
<path fill-rule="evenodd" clip-rule="evenodd" fill="none" stroke="#000000" stroke-width="1.553" stroke-linecap="round" d="
	M811.91,547.958c28.502,9.943,60.234,13.528,90.601,17.428"/>
<path fill-rule="evenodd" clip-rule="evenodd" fill="none" stroke="#000000" stroke-width="1.5916" stroke-linecap="round" d="
	M24.265,460.833c6.657,36.164,36.144,55.708,67.96,67.959"/>
<path fill-rule="evenodd" clip-rule="evenodd" fill="none" stroke="#000000" stroke-width="2.2638" stroke-linecap="round" d="
	M92.225,528.792c104.88,15.02,218.542,38.248,329.344,47.05"/>
<path fill-rule="evenodd" clip-rule="evenodd" fill="none" stroke="#000000" stroke-width="1.2536" stroke-linecap="round" d="
	M421.569,575.842c5.207-7.617,8.923-12.722,12.579-17.716c5.983-1.603,12.374-2.419,18.786-3.195"/>
<path fill-rule="evenodd" clip-rule="evenodd" fill="none" stroke="#000000" stroke-width="2.3604" stroke-linecap="round" d="
	M421.569,575.842c23.115,10.884,50.153-0.949,73.187,10.455"/>
<path fill-rule="evenodd" clip-rule="evenodd" fill="none" stroke="#000000" stroke-width="1.2472" stroke-linecap="round" d="
	M494.756,586.297c5.207-7.616,8.924-12.732,12.579-17.715c9.077-2.165,19.236-2.502,29.242-3.196"/>
<path fill-rule="evenodd" clip-rule="evenodd" fill="none" stroke="#000000" stroke-width="1.9113" stroke-linecap="round" d="
	M494.756,586.297c88.717,3.584,176.097,25.484,264.874,24.393"/>
<path fill-rule="evenodd" clip-rule="evenodd" fill="none" stroke="#000000" stroke-width="2.1213" stroke-linecap="round" d="
	M759.63,610.69c0.951-2.532,1.36-5.606,1.737-8.71"/>
<path fill-rule="evenodd" clip-rule="evenodd" fill="none" stroke="#000000" stroke-width="1.1402" stroke-linecap="round" d="
	M761.368,601.98c-6.79-7.402-16.919-12.15-26.139-15.683"/>
<path fill-rule="evenodd" clip-rule="evenodd" fill="none" stroke="#000000" stroke-width="1.2472" stroke-linecap="round" d="
	M761.368,601.98c11.741-5.677,30.183-4.676,47.05-5.228"/>
<path fill-rule="evenodd" clip-rule="evenodd" fill="none" stroke="#000000" stroke-width="1.815" stroke-linecap="round" d="
	M759.63,610.69c29.05,10.721,62.611,15.121,94.096,10.454"/>
<path fill-rule="evenodd" clip-rule="evenodd" fill="none" stroke="#000000" stroke-width="1.4907" stroke-linecap="round" d="
	M853.726,621.144c1.674-18.919,25.627-12.344,38.329-13.936"/>
<path fill-rule="evenodd" clip-rule="evenodd" fill="none" stroke="#000000" stroke-width="1.7078" stroke-linecap="round" d="
	M853.726,621.144c61.669,20.841,130.221,12.417,195.159,17.43"/>
<line fill-rule="evenodd" clip-rule="evenodd" fill="none" stroke="#000000" stroke-width="1" stroke-linecap="round" x1="1048.885" y1="638.574" x2="1043.658" y2="633.347"/>
<path fill-rule="evenodd" clip-rule="evenodd" fill="none" stroke="#000000" stroke-width="1" stroke-linecap="round" d="
	M1001.835,560.159c-31.447-34.521,14.724-54.819,20.913-83.643"/>
<line fill-rule="evenodd" clip-rule="evenodd" fill="none" stroke="#000000" stroke-width="1" stroke-linecap="round" x1="1022.749" y1="476.516" x2="1038.429" y2="481.744"/>
<path fill-rule="evenodd" clip-rule="evenodd" fill="none" stroke="#000000" stroke-width="1.923" stroke-linecap="round" d="
	M1038.429,481.744c-1.98-3.432-3.961-6.861-5.962-10.292c-128.73-30.642-315.799-49.143-479.757-66.959
	c-206.371-22.432-496.119-93.18-551.734,19.461c0.746,12.171,14.039,26.711,23.29,36.88"/>
<path fill-rule="evenodd" clip-rule="evenodd" fill="none" stroke="#000000" stroke-width="2.1647" stroke-linecap="round" d="
	M24.265,460.833c238.247,7.923,475.249,68.857,716.192,78.414"/>
<path fill-rule="evenodd" clip-rule="evenodd" fill="none" stroke="#000000" stroke-width="1.2383" stroke-linecap="round" d="
	M740.458,539.248c2.276-4.695,5.064-8.872,7.883-13.028c21.768-2.031,47.55-8.402,67.05,4.31"/>
<path fill-rule="evenodd" clip-rule="evenodd" fill="none" stroke="#000000" stroke-width="1.5852" stroke-linecap="round" d="
	M815.39,530.529c51.139,3.145,103.762,10.803,152.937,19.756c-3.33,24.445,22.483,20.696,38.737,20.329"/>
<line fill-rule="evenodd" clip-rule="evenodd" fill="none" stroke="#000000" stroke-width="1" stroke-linecap="round" x1="1007.064" y1="570.614" x2="1001.835" y2="560.159"/>
<path fill-rule="evenodd" clip-rule="evenodd" fill="none" stroke="#000000" stroke-width="1" stroke-linecap="round" d="
	M1095.933,507.881c-27.71,0.154-61.566-5.799-62.731,20.911c68.45-13.345,91.566,48.255,31.366,52.277"/>
<line fill-rule="evenodd" clip-rule="evenodd" fill="none" stroke="#000000" stroke-width="1" stroke-linecap="round" x1="1064.568" y1="581.07" x2="1059.34" y2="586.297"/>
<path fill-rule="evenodd" clip-rule="evenodd" fill="none" stroke="#000000" stroke-width="1.2018" stroke-linecap="round" d="
	M1059.34,586.297c18.298-0.868,36.227-1.378,41.821,10.455"/>
<line fill-rule="evenodd" clip-rule="evenodd" fill="none" stroke="#000000" stroke-width="1" stroke-linecap="round" x1="1101.162" y1="596.752" x2="1106.39" y2="601.98"/>
<path fill-rule="evenodd" clip-rule="evenodd" fill="none" stroke="#000000" stroke-width="1" stroke-linecap="round" d="
	M1106.39,601.98c42.843-4.9,94.73,21.973,52.275,41.822c64.591-10.916,18.542,42.188,73.188,52.275
	c-50.787,70.156-136.043-27.28-188.196-52.275"/>
<line fill-rule="evenodd" clip-rule="evenodd" fill="none" stroke="#000000" stroke-width="1" stroke-linecap="round" x1="1043.658" y1="643.802" x2="1048.885" y2="638.574"/>
<path fill-rule="evenodd" clip-rule="evenodd" fill="none" stroke="#000000" stroke-width="1.7512" stroke-linecap="round" d="
	M92.225,528.792c12.14,50.152,55.667,116.174,109.781,125.463"/>
<line fill-rule="evenodd" clip-rule="evenodd" fill="none" stroke="#000000" stroke-width="1" stroke-linecap="round" x1="202.006" y1="654.255" x2="196.779" y2="643.802"/>
<path fill-rule="evenodd" clip-rule="evenodd" fill="none" stroke="#000000" stroke-width="1" stroke-linecap="round" d="
	M196.779,643.802c43.312-6.248,81.11-17.297,31.366,10.453"/>
<line fill-rule="evenodd" clip-rule="evenodd" fill="none" stroke="#000000" stroke-width="1" stroke-linecap="round" x1="228.145" y1="654.255" x2="222.917" y2="664.713"/>
<path fill-rule="evenodd" clip-rule="evenodd" fill="none" stroke="#000000" stroke-width="2.5635" stroke-linecap="round" d="
	M222.917,664.713c10.456-0.307,20.911,2.388,31.367,5.227"/>
<path fill-rule="evenodd" clip-rule="evenodd" fill="none" stroke="#000000" stroke-width="1.1832" stroke-linecap="round" d="
	M254.283,669.94c6.974-6.974,13.948-13.947,20.911-20.91"/>
<path fill-rule="evenodd" clip-rule="evenodd" fill="none" stroke="#000000" stroke-width="2.4495" stroke-linecap="round" d="
	M254.283,669.94c17.429,5.236,34.858,3.981,52.277,10.456"/>
<path fill-rule="evenodd" clip-rule="evenodd" fill="none" stroke="#000000" stroke-width="1.1972" stroke-linecap="round" d="
	M306.56,680.396c37.074-42.903,95.548-6.36,141.147-5.228"/>
<path fill-rule="evenodd" clip-rule="evenodd" fill="none" stroke="#000000" stroke-width="1.3542" stroke-linecap="round" d="
	M447.707,675.168c102.308,13.089,205.33,28.322,308.433,36.593"/>
<path fill-rule="evenodd" clip-rule="evenodd" fill="none" stroke="#000000" stroke-width="2.1144" stroke-linecap="round" d="
	M432.024,701.306c117.929,19.563,235.449,33.337,355.482,41.821"/>
<path fill-rule="evenodd" clip-rule="evenodd" fill="none" stroke="#000000" stroke-width="1.2175" stroke-linecap="round" d="
	M787.506,743.127c21.545-31.314,62.4-17.907,94.092-20.91"/>
<path fill-rule="evenodd" clip-rule="evenodd" fill="none" stroke="#000000" stroke-width="2.6458" stroke-linecap="round" d="
	M787.506,743.127c44.496,7.178,90.437,9.588,135.914,10.456"/>
<path fill-rule="evenodd" clip-rule="evenodd" fill="none" stroke="#000000" stroke-width="1.2247" stroke-linecap="round" d="
	M923.42,753.583c5.208-7.617,8.924-12.732,12.579-17.715c59.425,4.135,141.598-25.527,186.073,17.715"/>
<path fill-rule="evenodd" clip-rule="evenodd" fill="none" stroke="#000000" stroke-width="2.0035" stroke-linecap="round" d="
	M1122.073,753.583c38.246-6.566,77.048-4.187,114.009-15.531c71.533-85.337-72.881-199.897-145.375-240.625"/>
<line fill-rule="evenodd" clip-rule="evenodd" fill="none" stroke="#000000" stroke-width="1" stroke-linecap="round" x1="1090.707" y1="497.427" x2="1095.933" y2="507.881"/>
<path fill-rule="evenodd" clip-rule="evenodd" fill="none" stroke="#000000" stroke-width="2.4583" stroke-linecap="round" d="
	M306.56,680.396c41.147,9.812,84.153,12.957,125.464,20.91"/>
<path fill-rule="evenodd" clip-rule="evenodd" fill="none" stroke="#000000" stroke-width="1.5811" stroke-linecap="round" d="
	M432.024,701.306c7.025-10.762,10.374-18.521,15.683-26.138"/>
<path fill-rule="evenodd" clip-rule="evenodd" fill="none" stroke="#000000" stroke-width="1.9612" stroke-linecap="round" d="
	M740.458,539.248c21.136,13.549,47.58,11.804,71.452,8.711"/>
<path fill-rule="evenodd" clip-rule="evenodd" fill="none" stroke="#000000" stroke-width="2.1602" stroke-linecap="round" d="
	M811.91,547.958c1.112-5.974,2.123-12.407,3.48-17.43"/>
<path fill-rule="evenodd" clip-rule="evenodd" fill="none" stroke="#000000" stroke-width="1" stroke-linecap="round" d="
	M1064.568,591.526c-8.883-1.92-9.862,4.073-10.455,10.454"/>
<line fill-rule="evenodd" clip-rule="evenodd" fill="none" stroke="#000000" stroke-width="1" stroke-linecap="round" x1="1054.113" y1="601.98" x2="1043.658" y2="596.752"/>
<line fill-rule="evenodd" clip-rule="evenodd" fill="none" stroke="#000000" stroke-width="1" stroke-linecap="round" x1="1059.34" y1="617.663" x2="1054.113" y2="601.98"/>
<path fill-rule="evenodd" clip-rule="evenodd" fill="none" stroke="#000000" stroke-width="1" stroke-linecap="round" d="
	M1054.113,601.98c16.562-0.868,39.881,5.024,41.82-10.454"/>
<line fill-rule="evenodd" clip-rule="evenodd" fill="none" stroke="#000000" stroke-width="1" stroke-linecap="round" x1="1095.933" y1="591.526" x2="1101.162" y2="596.752"/>
<line fill-rule="evenodd" clip-rule="evenodd" fill="none" stroke="#000000" stroke-width="1" stroke-linecap="round" x1="1059.34" y1="586.297" x2="1064.568" y2="591.526"/>
<path fill-rule="evenodd" clip-rule="evenodd" fill="none" stroke="#000000" stroke-width="2.1247" stroke-linecap="round" d="
	M923.42,753.583c64.673,8.311,134.082,8.801,198.652,0"/>
<path fill-rule="evenodd" clip-rule="evenodd" fill="none" stroke="#000000" stroke-width="1.1832" stroke-linecap="round" d="
	M181.096,513.11c37.932,8.975,76.894,12.028,115.009,20.91"/>
<path fill-rule="evenodd" clip-rule="evenodd" fill="none" stroke="#000000" stroke-width="1" stroke-linecap="round" d="
	M405.886,643.802c-35.94,4.574-58.607-4.137-83.643-10.455"/>
<line fill-rule="evenodd" clip-rule="evenodd" fill="none" stroke="#000000" stroke-width="1" stroke-linecap="round" x1="322.243" y1="633.347" x2="327.471" y2="622.892"/>
<path fill-rule="evenodd" clip-rule="evenodd" fill="none" stroke="#000000" stroke-width="1.8166" stroke-linecap="round" d="
	M327.471,622.892c-35.94,2.552-69.675-10.498-104.554-15.684"/>
<line fill-rule="evenodd" clip-rule="evenodd" fill="none" stroke="#000000" stroke-width="1" stroke-linecap="round" x1="327.471" y1="622.892" x2="322.243" y2="612.436"/>
<path fill-rule="evenodd" clip-rule="evenodd" fill="none" stroke="#000000" stroke-width="1" stroke-linecap="round" d="
	M322.243,612.436c23.79-29.823,61.282,14.692,104.554,0c-2.583,11.354-20.788,7.086-20.911,20.911"/>
<line fill-rule="evenodd" clip-rule="evenodd" fill="none" stroke="#000000" stroke-width="1" stroke-linecap="round" x1="405.886" y1="633.347" x2="400.658" y2="638.574"/>
<path fill-rule="evenodd" clip-rule="evenodd" fill="none" stroke="#000000" stroke-width="1.9239" stroke-linecap="round" d="
	M400.658,638.574c117.939,16.439,237.125,41.638,355.482,31.366"/>
<path fill-rule="evenodd" clip-rule="evenodd" fill="none" stroke="#000000" stroke-width="1.4907" stroke-linecap="round" d="
	M756.14,669.94c-2.532-6.472-4.4-10.884-6.239-15.193c-8.381-5.146-22.482-4.942-35.582-5.717"/>
<path fill-rule="evenodd" clip-rule="evenodd" fill="none" stroke="#000000" stroke-width="3.055" stroke-linecap="round" d="
	M756.14,669.94c3.49,0,6.973,0,10.455,0"/>
<path fill-rule="evenodd" clip-rule="evenodd" fill="none" stroke="#000000" stroke-width="1.3784" stroke-linecap="round" d="
	M766.595,669.94c17.43-11.353,34.859-9.343,52.276-10.456"/>
<path fill-rule="evenodd" clip-rule="evenodd" fill="none" stroke="#000000" stroke-width="2.4258" stroke-linecap="round" d="
	M766.595,669.94c42.383,32.867,98.098,6.238,146.37,10.456"/>
<path fill-rule="evenodd" clip-rule="evenodd" fill="none" stroke="#000000" stroke-width="1.732" stroke-linecap="round" d="
	M912.965,680.396c10.455-7.331,20.911-7.986,31.366-10.456"/>
<path fill-rule="evenodd" clip-rule="evenodd" fill="none" stroke="#000000" stroke-width="2.0529" stroke-linecap="round" d="
	M912.965,680.396c1.961,3.429,3.921,6.86,5.881,10.291c44.701,14.183,95.161-3.052,140.494,10.619"/>
<line fill-rule="evenodd" clip-rule="evenodd" fill="none" stroke="#000000" stroke-width="1" stroke-linecap="round" x1="400.658" y1="638.574" x2="405.886" y2="643.802"/>
</svg>
